<svg width="611" height="556" viewBox="0 0 611 556" fill="none" xmlns="http://www.w3.org/2000/svg">
<g opacity="0.1" clip-path="url(#clip0)">
<path d="M599.89 154.332C599.89 154.332 539.295 73.4594 511.354 36.0558C513.037 43.1321 513.711 50.8825 512.701 58.9697C511.691 71.4376 508.324 84.2425 503.611 97.0473C493.849 122.994 477.354 149.615 457.155 176.572C447.056 190.051 435.61 203.193 423.491 216.672C420.462 220.041 417.432 223.411 414.065 226.444L411.709 228.802L409.016 231.161L403.966 235.879C397.233 242.281 390.837 249.021 383.768 255.423C355.49 281.707 323.846 306.979 289.172 330.23C254.499 353.481 216.795 375.047 176.062 392.233C171.012 394.592 165.962 396.276 160.576 398.298C155.19 400.32 150.14 402.342 144.754 404.027C133.982 407.396 123.546 410.766 112.437 413.125C107.051 414.473 101.328 415.821 95.6049 416.495C89.882 417.169 84.4958 418.516 78.7729 418.853C73.05 419.19 67.3272 419.527 61.6043 419.864L43.7624 418.516L35.6831 417.169C32.6533 416.495 29.6236 415.821 26.5938 414.81C24.2374 413.799 21.8809 413.125 19.5244 412.114L107.724 530.053C107.724 530.053 108.061 530.39 108.061 530.727L108.397 531.064C148.457 583.295 297.588 551.956 433.927 449.518C434.264 449.181 434.6 448.844 434.937 448.844C571.276 346.405 638.94 207.236 599.89 154.332Z" fill="#A1B2C7"/>
<path d="M483.75 11.794C478.364 7.75036 472.641 5.72854 468.265 4.04369C463.888 2.69581 460.185 1.6849 457.492 1.34793C455.472 1.01096 454.126 0.673995 453.789 0.673995C453.453 0.673995 448.403 0.337025 438.64 -0.336914C433.591 -0.336914 427.531 0.337025 420.125 0.673995C416.422 1.34793 412.719 1.6849 408.343 2.35884C406.323 2.69581 403.967 3.03278 401.947 3.36975C399.59 3.70672 397.57 4.38066 395.214 5.0546C376.699 8.76127 354.481 16.1746 329.906 25.9467C305.331 36.0558 278.064 49.5346 250.122 66.72C221.845 83.9055 192.557 104.124 163.27 127.712C156.2 133.777 148.457 139.842 141.388 146.245C134.319 152.647 126.913 159.387 119.843 165.789C112.774 172.865 105.704 179.942 98.2982 187.018C94.9318 190.725 91.5654 194.095 87.8624 197.801C84.496 201.508 81.1296 205.215 77.7632 209.258C64.2976 224.759 51.1687 240.933 39.3863 258.119C27.2673 275.641 16.8315 293.838 9.0888 313.382C5.38577 323.154 2.35602 333.263 1.00946 343.035C-0.673733 353.144 -0.000454761 363.253 2.69266 372.015C4.03922 376.395 6.05905 380.776 9.0888 384.145C10.4354 386.167 12.1186 387.515 13.4651 389.2C15.4849 390.548 16.8315 392.233 18.8513 393.244L21.8811 395.265L25.2475 396.95C27.2673 397.961 29.6238 398.635 31.9803 399.646C34.3367 400.32 36.6932 400.994 38.7131 401.668L46.7924 403.016L61.9412 404.027C67.3274 404.027 72.377 403.353 77.7632 403.353C83.1494 403.016 88.199 402.005 93.5852 401.331C98.9715 400.657 104.021 399.309 109.407 398.298C119.843 396.276 130.279 392.907 140.378 389.537C145.428 387.852 150.477 385.83 155.527 384.145C160.576 382.124 165.626 380.439 170.339 378.417C209.726 361.905 247.093 341.35 281.43 318.773C315.767 296.196 347.411 271.598 375.016 246.662C382.085 240.596 388.818 233.857 395.551 227.455L400.6 222.737L402.957 220.378L405.313 218.019C408.343 214.65 411.709 211.617 414.739 208.247C426.858 195.442 437.967 182.301 448.066 169.496C468.265 143.549 484.087 117.939 493.513 93.3407C498.226 81.2097 501.255 69.4158 502.265 58.2958C503.275 47.1758 501.929 37.4037 498.562 29.6534C494.523 21.5661 489.136 15.8376 483.75 11.794Z" fill="#A1B2C7"/>
<path d="M588.445 189.04C588.108 182.638 586.425 175.561 582.722 169.496L583.059 169.159L533.573 103.113L528.187 96.0364L524.484 104.461C519.771 115.244 515.394 126.364 509.335 136.81L504.958 144.56C503.612 147.256 501.929 149.615 500.246 152.31L490.483 167.474L479.711 182.301L474.324 189.714L468.938 196.79L457.829 210.943L445.71 224.759L439.65 231.498L433.591 238.238L427.531 244.64L421.135 251.042L414.739 257.445L408.343 263.847C403.967 267.891 399.59 272.272 395.214 276.315C386.125 284.402 377.372 292.827 367.946 300.24L353.807 311.697C349.094 315.404 344.382 319.11 339.332 322.817C334.619 326.524 329.906 330.23 324.857 333.937L310.044 344.72L302.638 350.112L295.232 355.166L280.083 365.275C275.034 368.645 269.984 371.678 264.598 375.047L249.113 384.482C238.677 390.548 227.904 395.939 217.132 401.668C211.746 404.364 206.023 407.059 200.637 409.418C195.25 412.114 189.528 414.81 184.141 417.169C173.032 421.886 161.923 426.604 150.477 430.647L133.309 436.376L115.804 441.093C104.021 444.126 91.9022 446.148 79.7832 447.833C91.9022 446.822 104.021 445.811 116.14 443.115L133.982 439.072L151.487 434.017C163.27 430.31 174.715 426.267 186.161 421.886C197.607 417.168 208.716 412.451 219.825 407.396C230.598 401.668 242.043 396.613 252.479 390.548L268.638 381.45C274.024 378.417 279.41 375.384 284.46 372.015L299.945 362.242L307.688 357.188L315.094 352.133C325.193 345.394 335.292 338.655 345.055 330.904C349.768 327.198 354.817 323.491 359.867 319.784L374.006 308.327C383.768 300.577 392.521 292.49 401.947 284.402C406.66 280.359 411.036 275.978 415.412 271.935L422.145 265.532L428.541 259.13L434.938 252.727L441.334 245.988L465.572 222.4C465.572 222.4 500.919 194.095 523.474 226.107C542.662 253.064 538.286 307.99 487.79 365.275C470.285 385.156 437.967 412.114 417.432 428.962C422.819 424.919 428.205 421.212 433.591 417.169C438.977 413.125 444.027 409.081 449.076 404.701C454.126 400.657 459.176 395.939 464.225 391.896C469.275 387.515 473.988 383.135 478.701 378.417C488.463 369.319 497.552 359.547 506.642 349.775C511.018 344.72 515.394 339.665 519.771 334.611C523.81 329.556 528.187 324.165 532.226 318.773C536.266 313.382 540.306 307.99 544.009 302.599C547.712 297.207 551.415 291.479 554.781 285.75C561.85 274.293 568.247 262.499 573.633 250.369C576.326 244.303 579.019 237.901 581.039 231.498C583.395 225.096 585.079 218.356 586.425 211.617C588.108 203.193 588.782 196.453 588.445 189.04Z" fill="white"/>
<path d="M485.096 59.6436C484.086 68.0678 481.73 77.5029 477.69 87.2751C469.274 109.515 454.798 133.44 434.937 159.05C428.204 167.811 420.798 176.572 412.719 185.333C290.519 219.704 33.3264 289.457 29.96 290.468C32.6531 285.076 37.366 276.989 39.7225 273.619C43.4255 272.271 47.1286 270.924 51.1682 269.576C180.774 225.433 406.322 152.647 409.016 146.245C411.035 141.19 156.536 220.378 69.3467 244.64C64.9704 245.988 60.9308 246.999 57.5644 248.01C65.3071 237.901 73.3864 227.454 82.4757 217.345L92.5748 206.225L94.5947 203.867C99.6442 201.845 105.03 199.823 111.09 197.464C207.032 159.724 404.976 88.286 485.096 59.6436Z" fill="white"/>
</g>
<defs>
<clipPath id="clip0">
<rect width="611" height="556" fill="white"/>
</clipPath>
</defs>
</svg>
