<svg width="70" height="75" viewBox="0 0 70 75" fill="none" xmlns="http://www.w3.org/2000/svg">
<path fill-rule="evenodd" clip-rule="evenodd" d="M0 56.1498C2.1964 56.871 5.97908 56.8309 8.03312 56.6907L8.70424 56.6506L8.03312 59.7155C9.90413 58.6338 11.9582 57.9327 14.1749 58.2933C16.8594 58.734 19.1575 60.6771 21.0285 62.52L21.7199 63.2011L17.5305 63.9022C17.8966 64.0224 18.283 64.1426 18.6287 64.2829C19.9099 64.7837 21.0081 65.4046 22.086 66.246C23.6519 67.4479 25.0552 68.9503 26.3568 70.4127C28.7159 73.0769 31.2783 74.98 35 74.98C38.7217 74.98 41.2841 73.0569 43.6432 70.4127C44.9448 68.9503 46.3684 67.4479 47.914 66.246C48.9919 65.4046 50.0901 64.7837 51.3713 64.2829C51.7374 64.1426 52.1034 64.0224 52.4695 63.9022L48.2597 63.2011L48.9512 62.52C50.8222 60.6771 53.1203 58.754 55.8048 58.2933C58.0215 57.9327 60.0959 58.6338 61.9465 59.7155L61.2754 56.6506L61.9465 56.6907C64.0006 56.8309 67.7833 56.891 69.9797 56.1498C68.4137 54.347 67.4172 52.3838 66.7664 50.0601C66.38 48.6779 66.1156 47.2556 65.8716 45.8133C65.6275 44.3309 65.4038 42.8686 65.0784 41.4062L64.8141 40.1643L65.8716 40.8854C66.7868 41.5064 67.7019 42.1474 68.6171 42.7684C68.1493 35.8974 65.5259 29.0865 59.8722 24.7396L59.5061 24.4591L59.7501 24.0785C61.2958 21.6346 62.1092 18.8902 62.2313 16.0256C62.3126 13.9223 62.0279 11.8189 61.4381 9.79567C60.828 7.73237 59.9332 5.76923 58.7536 3.96635C57.8588 2.52404 56.7606 1.20192 55.5607 0C54.7066 3.80609 52.3678 6.10978 49.0732 8.41346C48.8292 8.57372 48.6055 8.75401 48.3614 8.91426L48.2394 8.99439L45.5956 9.21474C44.172 9.33494 42.7891 9.73558 41.5485 10.4567L41.4672 10.4968L39.4945 10.7772C37.9692 10.9976 36.5253 11.6987 35.3457 12.6603L35.0203 12.9207L34.6949 12.6603C33.5154 11.6987 32.0715 10.9976 30.5462 10.7772L28.5735 10.4968L28.4922 10.4567C27.2516 9.75561 25.8687 9.33494 24.4451 9.21474L21.8013 8.99439L21.6793 8.91426C21.4352 8.75401 21.1912 8.57372 20.9675 8.41346C17.6322 6.10978 15.2934 3.80609 14.4393 0C13.2191 1.20192 12.1412 2.52404 11.226 3.96635C10.0668 5.76923 9.15166 7.73237 8.54154 9.79567C7.95177 11.8189 7.66705 13.9223 7.7484 16.0256C7.87042 18.8902 8.6839 21.6346 10.2295 24.0986L10.4736 24.4792L10.1075 24.7596C4.45381 29.1066 1.83033 35.9175 1.36258 42.7885C2.27775 42.1675 3.19291 41.5264 4.10808 40.9054L5.1656 40.1843L4.90122 41.4263C4.57583 42.8886 4.35212 44.371 4.10808 45.8333C3.86403 47.2556 3.61999 48.6779 3.21325 50.0801C2.56246 52.3838 1.56595 54.347 0 56.1498Z" fill="white"/>
<path d="M58.876 45.7532C57.6965 45.1923 56.0695 44.351 55.0933 43.2492C54.9306 44.8718 55.3374 47.6763 56.5983 49.3189C53.7918 47.7564 50.3345 48.2171 49.0533 49.1186C50.1108 49.1987 51.1073 49.4391 51.8394 49.8197C47.2433 49.8998 44.03 53.0048 41.8336 58.2732C41.7523 57.9327 41.6913 57.5921 41.6302 57.2516C41.6302 48.9984 48.4431 43.4896 48.0161 39.3229C47.6907 40.2444 47.1212 41.2059 46.3078 42.0072C46.5518 41.1258 46.6128 40.2644 46.4094 39.5433C46.0027 38.0208 44.8842 36.7388 43.5419 35.7171C46.1857 35.3766 48.2194 33.5737 49.1143 30.8494C48.5245 30.2885 47.7313 29.7877 46.7958 29.4271C47.8127 28.8461 48.7889 28.5657 49.7244 28.9263C44.8435 23.9984 39.6169 35.1763 36.607 33.7139C37.2781 34.5753 37.9899 34.8958 38.7627 34.8558C38.8034 34.8758 38.8441 34.8958 38.8848 34.9159C40.9388 35.8373 43.8266 38.0609 44.3757 40.0641C44.8232 41.6667 42.6674 44.7917 41.1218 45.4928C40.2473 45.8934 37.6035 45.6731 35.8139 45.2524C35.7528 44.992 35.7528 44.7115 35.8139 44.4311C36.0782 44.2909 36.3223 44.1707 36.5663 44.0304C37.2375 42.0272 39.0271 40.9255 38.8848 42.4479C45.6163 36.6787 24.3641 36.6787 31.0957 42.4479C30.9533 40.9255 32.743 42.0272 33.4141 44.0304C33.6581 44.1707 33.9022 44.2909 34.1666 44.4311C34.2276 44.7115 34.2276 44.992 34.1666 45.2524C32.3972 45.6731 29.7331 45.8934 28.8586 45.4928C27.3333 44.7716 25.1776 41.6667 25.6047 40.0641C26.1538 38.0609 29.0416 35.8373 31.0957 34.9159C31.1363 34.8958 31.177 34.8758 31.2177 34.8558C31.9905 34.8758 32.7023 34.5553 33.3734 33.7139C30.3635 35.1562 25.1369 23.9984 20.256 28.9263C21.1915 28.5657 22.1677 28.8461 23.1846 29.4271C22.2491 29.7676 21.4356 30.2885 20.8662 30.8494C21.761 33.5737 23.7947 35.3766 26.4385 35.7171C25.0963 36.7388 23.9777 38.0208 23.571 39.5433C23.3676 40.2644 23.4286 41.1258 23.6727 42.0072C22.8795 41.1859 22.3101 40.2444 21.9644 39.3229C21.5373 43.4896 28.3502 48.9984 28.3502 57.2516C28.3095 57.5921 28.2282 57.9327 28.1468 58.2732C25.9301 53.0048 22.7372 49.9199 18.141 49.8197C18.8731 49.4391 19.8696 49.1987 20.9272 49.1186C19.6459 48.2171 16.1886 47.7564 13.3821 49.3189C14.6634 47.6763 15.0498 44.8918 14.8871 43.2492C13.9109 44.351 12.3043 45.1923 11.1044 45.7532C10.7587 40.7853 11.7552 37.3798 14.0939 33.6138C11.8569 33.5537 9.03001 34.1947 7.13867 35.2764C10.4536 28.2252 15.8022 24.1987 22.6355 24.1386C21.4966 23.6378 20.3577 23.3574 19.2392 23.2572C18.5884 22.8165 18.1003 22.1755 17.6326 21.234C18.0596 21.4744 19.1985 21.5545 19.7476 21.234C18.1003 20.9335 17.1241 19.8117 16.7784 18.2692C17.3885 18.9904 18.5071 19.4912 20.0933 19.4511C18.3647 16.246 14.582 15.3846 13.6669 12.4399C12.6297 14.5232 12.406 17.2276 12.9144 19.8518C11.6738 16.226 12.0602 11.8389 13.8295 8.17307C17.4699 13.2812 25.8284 13.0609 26.7639 20.7131C27.2113 19.371 27.2927 18.1891 27.0893 17.1274C27.374 16.0857 27.4553 14.8638 27.191 13.9223C28.8179 14.7836 29.7941 16.6266 30.2619 18.8502C31.4211 18.0288 32.1532 16.7668 32.3972 15.2844C33.2921 15.7852 34.2682 16.9271 35.0004 18.9503C35.7325 16.9271 36.7087 15.7852 37.6035 15.2844C37.8476 16.7468 38.5797 18.0288 39.7389 18.8502C40.2066 16.6266 41.1828 14.7836 42.8098 13.9223C42.5657 14.8638 42.6471 16.1058 42.9115 17.1274C42.7081 18.1891 42.7691 19.351 43.2369 20.7131C44.1724 13.0809 52.5309 13.2812 56.1712 8.17307C57.9405 11.8389 58.3269 16.226 57.0864 19.8317C57.5948 17.2075 57.3711 14.5032 56.3339 12.4199C55.3984 15.3646 51.6361 16.226 49.9074 19.4311C51.4937 19.4912 52.6122 18.9703 53.2223 18.2492C52.8563 19.8117 51.9004 20.9135 50.2531 21.2139C50.8022 21.5344 51.9208 21.4543 52.3682 21.2139C51.9208 22.1554 51.4123 22.7965 50.7616 23.2372C49.643 23.3373 48.5042 23.6178 47.3653 24.1186C54.2189 24.1787 59.5675 28.2051 62.8621 35.2564C60.9707 34.1747 58.1439 33.5336 55.9068 33.5937C58.2252 37.3598 59.2218 40.7652 58.876 45.7532ZM29.6314 65.8454C33.0277 69.5713 36.9731 69.5713 40.3694 65.8454C38.173 72.6763 31.8278 72.6763 29.6314 65.8454Z" fill="#3C87E4"/>
<path d="M58.8752 45.7532C57.6957 45.1923 56.0687 44.3509 55.0925 43.2492C55.0722 43.5096 55.0519 43.8101 55.0519 44.1106L47.8526 40.9856C48.0153 40.4046 48.0763 39.8437 48.0153 39.3229C47.8526 39.8037 47.6085 40.2844 47.3035 40.7652L46.5307 40.4247C46.5307 40.1242 46.49 39.8237 46.4086 39.5432C46.0019 38.0208 44.8834 36.7388 43.5411 35.7171C46.1849 35.3766 48.2186 33.5737 49.1135 30.8493C48.5237 30.2884 47.7305 29.7876 46.795 29.4271C46.9577 29.3269 47.1204 29.2468 47.2628 29.1666C50.8828 29.5272 54.5841 31.0096 57.2483 33.6338C56.7805 33.5937 56.3128 33.5737 55.8654 33.5937C58.2245 37.3598 59.221 40.7652 58.8752 45.7532ZM38.9043 33.133C38.0501 33.734 37.2773 34.0344 36.6062 33.7139C36.9926 34.2147 37.379 34.5152 37.8061 34.6955C36.7486 34.9359 35.6504 34.7957 34.9996 34.1747C34.3488 34.7957 33.2303 34.9359 32.1931 34.6955C32.5998 34.5152 33.0065 34.1947 33.393 33.7139C32.7218 34.0344 31.949 33.734 31.0949 33.133C33.9421 32.3517 33.3726 28.5457 30.9525 25.8213L32.9862 25.7412L34.9996 27.6242L37.0129 25.7412L39.0466 25.8213C36.6265 28.5457 36.0571 32.3718 38.9043 33.133ZM22.716 29.1666C22.8787 29.2468 23.0414 29.3269 23.1838 29.4271C22.2483 29.7676 21.4348 30.2884 20.8654 30.8493C21.7602 33.5737 23.7939 35.3766 26.4377 35.7171C25.0955 36.7388 23.9769 38.0208 23.5702 39.5432C23.4888 39.8237 23.4482 40.1041 23.4482 40.4247L22.6753 40.7652C22.3703 40.3045 22.1466 39.8037 21.9636 39.3229C21.9025 39.8638 21.9636 40.4046 22.1262 40.9856L14.9269 44.1106C14.9269 43.79 14.9269 43.5096 14.8863 43.2492C13.9101 44.3509 12.3035 45.1923 11.1036 45.7532C10.7579 40.7852 11.7544 37.3798 14.0931 33.6138C13.6457 33.5937 13.178 33.6138 12.7102 33.6538C15.3947 31.0296 19.096 29.5473 22.716 29.1666ZM10.9612 33.8942C9.57831 34.1747 8.21573 34.6354 7.1582 35.2564C9.65966 29.9479 13.3 26.3421 17.8961 24.8598C13.7881 26.863 11.612 30.3285 10.9612 33.8942ZM20.601 23.4375C20.1536 23.3373 19.7061 23.2772 19.2587 23.2372C18.6079 22.7965 18.1199 22.1554 17.6521 21.2139C18.0792 21.4543 19.2181 21.5344 19.7672 21.2139C18.1199 20.9134 17.1437 19.7917 16.7979 18.2492C17.4081 18.9703 18.5266 19.4711 20.1129 19.4311C18.3842 16.2259 14.6016 15.3646 13.6864 12.4199C12.6492 14.5032 12.4255 17.2075 12.9339 19.8317C11.673 16.2259 12.0594 11.8389 13.8287 8.17307C13.8491 8.21313 13.8898 8.25319 13.9304 8.29326C14.8659 12.2195 23.3261 16.5064 20.601 23.4375ZM56.0687 8.29326C56.1094 8.25319 56.1297 8.21313 56.1704 8.17307C57.9397 11.8389 58.3261 16.2259 57.0856 19.8317C57.594 17.2075 57.3703 14.5032 56.3331 12.4199C55.3976 15.3646 51.6353 16.2259 49.9066 19.4311C51.4929 19.4912 52.6114 18.9703 53.2215 18.2492C52.8555 19.8117 51.8996 20.9134 50.2523 21.2139C50.8014 21.5344 51.92 21.4543 52.3674 21.2139C51.92 22.1554 51.4115 22.7965 50.7608 23.2372C50.3134 23.2772 49.8659 23.3373 49.4185 23.4375C46.673 16.5064 55.1332 12.2195 56.0687 8.29326ZM52.103 24.8798C56.6788 26.3622 60.3395 29.9479 62.841 35.2764C61.7834 34.6554 60.4208 34.1947 59.0379 33.9142C58.3668 30.3285 56.2111 26.863 52.103 24.8798Z" fill="#1B4F8F"/>
<path d="M58.8752 45.7532C57.6956 45.1923 56.0686 44.351 55.0925 43.2492C54.9298 44.8718 55.3365 47.6763 56.5974 49.3189C53.7909 47.7564 50.3336 48.2172 49.0524 49.1186C50.1099 49.1987 51.1064 49.4391 51.8386 49.8197C47.2424 49.8998 44.0291 53.0048 41.8327 58.2733C41.7514 57.9327 41.6904 57.5922 41.6294 57.2516C41.6294 48.9984 48.4423 43.4896 48.0152 39.3229C47.6898 40.2444 47.1204 41.2059 46.3069 42.0072C46.5509 41.1258 46.6119 40.2644 46.4086 39.5433C46.0018 38.0208 44.8833 36.7388 43.5411 35.7172C44.7003 35.5769 45.7578 35.1362 46.6323 34.4551C49.4795 34.1947 52.6927 34.8958 55.0518 37.2997C54.218 37.0192 52.1639 36.4784 50.8827 37.1795C53.9943 37.6402 57.2889 40.2444 58.8752 45.7532ZM42.5852 37.4399C43.4597 38.2813 44.1512 39.2027 44.3952 40.0641C44.8426 41.6667 42.6869 44.7917 41.1413 45.4928C40.2668 45.8934 37.623 45.6731 35.8333 45.2524C35.7723 44.992 35.7723 44.7115 35.8333 44.4311C36.0977 44.2909 36.3417 44.1707 36.5858 44.0305C37.2569 42.0273 39.0466 40.9255 38.9042 42.4479C40.3481 41.2059 40.4905 40.2444 39.9211 39.5433C40.2465 39.1627 40.4905 38.722 40.6329 38.1611C41.2836 38.5617 41.7107 39.2428 41.9954 40.0641C42.2191 39.1426 42.0971 37.7805 41.304 37.1394C41.7107 37.1995 42.1378 37.2997 42.5852 37.4399ZM30.0779 39.5633C29.5085 40.2644 29.6509 41.246 31.0948 42.468C30.9524 40.9455 32.7421 42.0473 33.4132 44.0505C33.6573 44.1907 33.9013 44.3109 34.1657 44.4511C34.2267 44.7316 34.2267 45.012 34.1657 45.2724C32.3964 45.6931 29.7322 45.9135 28.8577 45.5128C27.3325 44.7917 25.1767 41.6867 25.6038 40.0841C25.8479 39.2027 26.5393 38.2813 27.4138 37.4599C27.8409 37.3197 28.2883 37.2196 28.695 37.1394C27.8816 37.8005 27.7799 39.1426 28.0036 40.0641C28.2883 39.2428 28.7154 38.5817 29.3662 38.1611C29.5085 38.722 29.7526 39.1827 30.0779 39.5633ZM23.3464 34.4752C24.2209 35.1362 25.2784 35.5769 26.4376 35.7372C25.0954 36.7588 23.9768 38.0409 23.5701 39.5633C23.3667 40.2845 23.4277 41.1458 23.6718 42.0273C22.8786 41.2059 22.3092 40.2644 21.9635 39.343C21.5364 43.5096 28.3493 49.0184 28.3493 57.2716C28.3086 57.6122 28.2273 57.9527 28.1459 58.2933C25.9292 53.0249 22.7363 49.9399 18.1401 49.8398C18.8723 49.4591 19.8688 49.2188 20.9263 49.1386C19.6451 48.2372 16.1878 47.7765 13.3813 49.339C14.6625 47.6963 15.0489 44.9119 14.8862 43.2692C13.91 44.371 12.3034 45.2123 11.1035 45.7732C12.7101 40.2644 15.9844 37.6803 19.0756 37.2196C17.7944 36.5184 15.7404 37.0593 14.9065 37.3397C17.286 34.9159 20.4789 34.2147 23.3464 34.4752ZM29.6305 65.8454C33.0268 69.5713 36.9722 69.5713 40.3685 65.8454C38.1721 72.6763 31.8269 72.6763 29.6305 65.8454Z" fill="white"/>
<path d="M23.5302 31.5905C23.9573 31.3101 24.6284 31.0296 25.1978 30.8894C26.4587 31.9511 27.74 33.1731 28.9602 33.9743C26.5808 34.375 24.2827 33.6138 23.5302 31.5905ZM31.1362 37.6001C33.4953 36.6186 36.4849 36.6186 38.844 37.6001C36.6882 34.9359 33.3123 34.9359 31.1362 37.6001ZM35.0003 25.8413C33.414 24.5192 31.1769 24.3189 28.6551 24.8998C30.9939 25.4607 33.9224 27.5841 35.0003 30.0681C36.0781 27.5841 38.9863 25.4607 41.3454 24.8998C38.8236 24.3189 36.5866 24.5192 35.0003 25.8413ZM66.8074 39.7035C65.6685 33.3333 61.9672 27.5441 57.31 24.8397C62.7196 18.7099 60.8893 8.03284 56.1914 2.72435C54.7882 7.91265 47.6296 10.2163 44.396 14.1426C44.5587 12.7804 45.1078 11.4784 45.7179 10.7171C43.1351 10.9375 40.837 12.2396 39.4541 14.5833C39.1287 14.0224 39.2507 12.8205 39.6981 12.2796C38.1322 12.5 36.2612 13.4816 35.0003 15.2043C33.7597 13.4816 31.8887 12.5 30.3024 12.2796C30.7498 12.8205 30.8719 14.0425 30.5465 14.5833C29.1636 12.2396 26.8451 10.9375 24.2827 10.7171C24.8928 11.4984 25.4419 12.7804 25.6046 14.1426C22.371 10.2163 15.2124 7.91265 13.8091 2.72435H13.7888C9.11126 8.05288 7.26059 18.7099 12.6702 24.8397C7.99272 27.5641 4.31172 33.3534 3.17285 39.7035C4.08802 39.0625 6.52846 37.7203 8.13508 37.2997C5.49127 40.4647 5.9997 50.0801 3.27454 53.9663C4.69813 53.8461 7.30127 53.0449 8.70452 52.0032C8.27744 52.9247 7.21992 54.3069 5.95902 55.028C7.34194 55.5288 10.1078 55.0481 11.633 54.1867C10.9213 54.9479 10.3518 56.1498 10.0874 57.3718C17.3071 54.2067 20.4593 60.7372 25.6046 64.6434C24.4047 64.3229 23.2251 64.3029 22.1066 64.5833C26.113 65.665 28.1467 73.5176 34.9799 73.5176C41.8132 73.5176 43.8469 65.665 47.8533 64.5833C46.7347 64.3029 45.5349 64.3229 44.3553 64.6434C49.5006 60.7572 52.6528 54.2067 59.8724 57.3718C59.6081 56.1298 59.0386 54.9479 58.3268 54.1867C59.8521 55.0481 62.6179 55.5288 64.0009 55.028C62.7603 54.3069 61.7028 52.9247 61.2554 52.0032C62.6586 53.0449 65.2618 53.8461 66.6853 53.9663C63.9602 50.0801 64.4686 40.4848 61.8248 37.2997C63.4721 37.7203 65.8922 39.0825 66.8074 39.7035ZM41.0404 33.9743C42.2606 33.1731 43.5418 31.9511 44.8027 30.8894C45.3722 31.0296 46.0433 31.3101 46.4704 31.5905C45.7179 33.6138 43.4198 34.375 41.0404 33.9743ZM58.8759 45.7532C57.6964 45.1923 56.0694 44.3509 55.0932 43.2492C54.9305 44.8718 55.3373 47.6763 56.5982 49.3189C53.7917 47.7564 50.3344 48.2171 49.0532 49.1186C50.1107 49.1987 51.1072 49.4391 51.8393 49.8197C47.2432 49.8998 44.0299 53.0048 41.8335 58.2732C41.7522 57.9327 41.6912 57.5921 41.6301 57.2516C41.6301 48.9984 48.443 43.4896 48.016 39.3229C47.6906 40.2444 47.1211 41.2059 46.3077 42.0072C46.5517 41.1258 46.6127 40.2644 46.4093 39.5433C46.0026 38.0208 44.8841 36.7388 43.5418 35.7171C46.1856 35.3766 48.2193 33.5737 49.1142 30.8493C48.5244 30.2884 47.7312 29.7876 46.7957 29.4271C47.8126 28.8461 48.7888 28.5657 49.7243 28.9263C44.8434 23.9984 39.6168 35.1763 36.6069 33.7139C37.278 34.5753 37.9898 34.8958 38.7626 34.8558C38.8033 34.8758 38.844 34.8958 38.8846 34.9159C40.9387 35.8373 43.8265 38.0609 44.3756 40.0641C44.8231 41.6666 42.6673 44.7916 41.1217 45.4928C40.2472 45.8934 37.6034 45.6731 35.8138 45.2524C35.7527 44.992 35.7527 44.7115 35.8138 44.4311C36.0781 44.2908 36.3222 44.1707 36.5662 44.0304C37.2373 42.0272 39.027 40.9255 38.8846 42.4479C45.6162 36.6787 24.364 36.6787 31.0956 42.4479C30.9532 40.9255 32.7429 42.0272 33.414 44.0304C33.658 44.1707 33.9021 44.2908 34.1665 44.4311C34.2275 44.7115 34.2275 44.992 34.1665 45.2524C32.3971 45.6731 29.733 45.8934 28.8585 45.4928C27.3332 44.7716 25.1775 41.6666 25.6046 40.0641C26.1537 38.0609 29.0415 35.8373 31.0956 34.9159C31.1362 34.8958 31.1769 34.8758 31.2176 34.8558C31.9904 34.8758 32.7022 34.5553 33.3733 33.7139C30.3634 35.1562 25.1368 23.9984 20.2559 28.9263C21.1914 28.5657 22.1676 28.8461 23.1845 29.4271C22.249 29.7676 21.4355 30.2884 20.8661 30.8493C21.7609 33.5737 23.7946 35.3766 26.4384 35.7171C25.0962 36.7388 23.9776 38.0208 23.5709 39.5433C23.3675 40.2644 23.4285 41.1258 23.6726 42.0072C22.8794 41.1859 22.31 40.2444 21.9643 39.3229C21.5372 43.4896 28.3501 48.9984 28.3501 57.2516C28.3094 57.5921 28.2281 57.9327 28.1467 58.2732C25.93 53.0048 22.7371 49.9199 18.1409 49.8197C18.873 49.4391 19.8695 49.1987 20.9271 49.1186C19.6458 48.2171 16.1885 47.7564 13.382 49.3189C14.6633 47.6763 15.0497 44.8918 14.887 43.2492C13.9108 44.3509 12.3042 45.1923 11.1043 45.7532C10.7586 40.7852 11.7551 37.3798 14.0938 33.6138C11.8568 33.5537 9.02991 34.1947 7.13857 35.2764C10.4535 28.2251 15.8021 24.1987 22.6354 24.1386C21.4965 23.6378 20.3576 23.3574 19.2391 23.2572C18.5883 22.8165 18.1002 22.1755 17.6325 21.234C18.0595 21.4743 19.1984 21.5545 19.7475 21.234C18.1002 20.9335 17.124 19.8117 16.7783 18.2692C17.3884 18.9904 18.507 19.4912 20.0932 19.4511C18.3646 16.246 14.5819 15.3846 13.6667 12.4399C12.6296 14.5232 12.4059 17.2276 12.9143 19.8518C11.6737 16.226 12.0601 11.8389 13.8294 8.17307C17.4698 13.2812 25.8283 13.0609 26.7638 20.7131C27.2112 19.371 27.2926 18.1891 27.0892 17.1274C27.3739 16.0857 27.4552 14.8638 27.1909 13.9223C28.8178 14.7836 29.794 16.6266 30.2618 18.8501C31.421 18.0288 32.1531 16.7668 32.3971 15.2844C33.292 15.7852 34.2681 16.9271 35.0003 18.9503C35.7324 16.9271 36.7086 15.7852 37.6034 15.2844C37.8475 16.7468 38.5796 18.0288 39.7388 18.8501C40.2066 16.6266 41.1827 14.7836 42.8097 13.9223C42.5656 14.8638 42.647 16.1058 42.9114 17.1274C42.708 18.1891 42.769 19.351 43.2368 20.7131C44.1723 13.0809 52.5308 13.2812 56.1711 8.17307C57.9404 11.8389 58.3268 16.226 57.0863 19.8317C57.5947 17.2075 57.371 14.5032 56.3338 12.4199C55.3983 15.3646 51.636 16.226 49.9073 19.4311C51.4936 19.4912 52.6121 18.9703 53.2222 18.2492C52.8562 19.8117 51.9003 20.9135 50.253 21.2139C50.8021 21.5344 51.9207 21.4543 52.3681 21.2139C51.9207 22.1554 51.4122 22.7965 50.7615 23.2372C49.6429 23.3373 48.5041 23.6178 47.3652 24.1186C54.2188 24.1787 59.5674 28.2051 62.862 35.2564C60.9706 34.1747 58.1438 33.5336 55.9067 33.5937C58.2251 37.3598 59.2217 40.7652 58.8759 45.7532ZM38.9253 53.0449C39.1287 51.883 38.905 50.4607 38.5593 49.4391C38.5999 50.0601 38.3966 50.8413 38.1118 51.1819C38.0915 50.7812 38.1118 50.4006 37.9085 50.02C36.5662 49.2788 33.414 49.2788 32.0921 50.02C31.8887 50.4006 31.909 50.7812 31.8887 51.1819C31.604 50.8413 31.3803 50.0601 31.4413 49.4391C31.0956 50.4407 30.8719 51.883 31.0752 53.0449C30.038 51.8229 29.3873 49.7396 29.2246 47.9767C31.2379 48.0969 33.0683 47.8966 35.0003 47.2957C36.8713 47.8766 38.844 48.0969 40.776 47.9767C40.6133 49.7396 39.9625 51.8229 38.9253 53.0449ZM31.2176 60.5368C31.5023 61.4984 31.8277 62.6402 32.4378 63.4615C34.2071 64.4231 35.8138 64.4231 37.5627 63.4615C38.1525 62.6202 38.4982 61.4984 38.783 60.5368C39.2507 61.3582 39.3117 63.3413 38.8643 64.3429C37.4 66.6066 32.5802 66.6066 31.1362 64.3429C30.6888 63.3413 30.7702 61.3582 31.2176 60.5368ZM29.6313 65.8453C33.0276 69.5713 36.973 69.5713 40.3692 65.8453C38.1729 72.6763 31.8277 72.6763 29.6313 65.8453Z" fill="#161515"/>
<path d="M31.2177 60.5369C31.5024 61.4984 31.8278 62.6402 32.4379 63.4615C34.2072 64.4231 35.8138 64.4231 37.5628 63.4615C38.1526 62.6202 38.4983 61.4984 38.783 60.5369C39.2508 61.3582 39.3118 63.3413 38.8644 64.3429C37.4001 66.6066 32.5802 66.6066 31.1363 64.3429C30.6889 63.3413 30.7702 61.3582 31.2177 60.5369ZM23.5303 31.5905C23.9574 31.3101 24.6285 31.0296 25.1979 30.8894C26.4588 31.9511 27.74 33.1731 28.9603 33.9744C26.5808 34.375 24.2827 33.6138 23.5303 31.5905ZM41.0404 33.9744C42.2607 33.1731 43.5419 31.9511 44.8028 30.8894C45.3722 31.0296 46.0433 31.3101 46.4704 31.5905C45.718 33.6138 43.4199 34.375 41.0404 33.9744ZM38.9254 53.0449C39.1288 51.883 38.9051 50.4607 38.5593 49.4391C38.6 50.0601 38.3966 50.8413 38.1119 51.1819C38.0916 50.7812 38.1119 50.4006 37.9085 50.02C36.5663 49.2788 33.4141 49.2788 32.0922 50.02C31.8888 50.4006 31.9091 50.7812 31.8888 51.1819C31.6041 50.8413 31.3804 50.0601 31.4414 49.4391C31.0956 50.4407 30.8719 51.883 31.0753 53.0449C30.0381 51.8229 29.3873 49.7396 29.2246 47.9768C31.238 48.0969 33.0683 47.8966 35.0003 47.2957C36.8714 47.8766 38.844 48.0969 40.7761 47.9768C40.6134 49.7396 39.9626 51.8229 38.9254 53.0449Z" fill="white"/>
</svg>
