<svg width="69" height="17" viewBox="0 0 69 17" fill="none" xmlns="http://www.w3.org/2000/svg">
<path d="M34.6514 14.686H32.1328V16.5149H34.6514V14.686Z" fill="#133D6F"/>
<path d="M39.5831 16.6717C43.1782 16.6717 43.5439 14.9472 43.5439 14.1634V14.1425H41.1507C41.0985 14.362 40.8685 15.1772 39.2905 15.1772H39.2591C37.911 15.1772 37.4721 14.4247 37.4721 13.6722V13.599C37.4721 12.8884 37.9005 12.209 39.2591 12.209H39.2905C40.8894 12.209 41.0985 13.0033 41.1507 13.2228H43.5439V13.1915C43.5439 12.439 43.105 10.7354 39.5936 10.7354H38.9979C35.7895 10.7354 35.0893 12.3136 35.0893 13.5677V13.7767C35.0893 15.0309 35.8 16.6717 39.0083 16.6717H39.5831Z" fill="#133D6F"/>
<path d="M49.1324 14.0171C49.1324 14.686 48.3277 15.3548 47.0841 15.3548C46.2898 15.3548 46.0599 15.0204 46.0599 14.7173V14.7069C46.0599 14.3829 46.3108 14.2784 46.9064 14.1843L49.1324 13.8394V14.0171ZM49.1951 15.7415C49.2788 16.2745 49.6341 16.5149 50.0835 16.5149H51.975V14.9891H51.672C51.4316 14.9891 51.3793 14.8741 51.3793 14.7069V12.5539C51.3793 11.7387 51.1703 10.7354 47.9097 10.7354H47.3349C44.1997 10.7354 43.9802 11.8955 43.9802 12.6375V12.6584H46.1435C46.1749 12.4703 46.2271 12.0314 47.6171 12.0314H47.6693C49.0384 12.0314 49.1324 12.2822 49.1324 12.4912C49.1324 12.6689 49.0384 12.7525 48.7771 12.7839L46.2062 13.0242C44.5237 13.181 43.8444 13.6722 43.8444 14.7069V14.78C43.8444 15.7415 44.5655 16.6194 46.4571 16.6194H46.5929C48.2441 16.6194 48.9548 16.0446 49.1951 15.7415Z" fill="#133D6F"/>
<path d="M52.4343 16.5149H54.8171L58.3494 12.972V16.5149H60.6799V10.8922H58.2971L54.7648 14.4351V10.8922H52.4343V16.5149ZM56.7609 10.4323C58.4853 10.4323 58.9764 9.29317 58.9764 8.76016V8.73926H57.2416C57.2416 8.86467 57.1371 9.25136 56.6041 9.25136C56.0607 9.25136 55.9562 8.86467 55.9562 8.73926H54.1796V8.76016C54.1796 9.29317 54.5244 10.4323 56.4265 10.4323H56.7609Z" fill="#133D6F"/>
<path d="M63.7519 16.5149H66.0824V12.439H68.4338V10.8922H61.4005V12.439H63.7519V16.5149Z" fill="#133D6F"/>
<path d="M32.1976 5.89039H34.5267V1.73623H36.8766V0.159776H29.8477V1.73623H32.1976V5.89039Z" fill="#133D6F"/>
<path d="M41.9329 6.05017C45.4004 6.05017 45.954 4.40981 45.954 3.089V2.89726C45.954 1.59776 45.3586 0 41.9329 0H41.1914C37.9328 0 37.1599 1.57645 37.1599 2.89726V3.089C37.1599 4.40981 37.9432 6.05017 41.2018 6.05017H41.9329ZM41.5674 4.50567C39.9799 4.50567 39.5412 3.69614 39.5412 3.02509V2.97183C39.5412 2.24751 39.9799 1.52319 41.5674 1.52319H41.5778C43.1445 1.52319 43.5936 2.25816 43.5936 2.97183V3.02509C43.5936 3.69614 43.1549 4.50567 41.5674 4.50567Z" fill="#133D6F"/>
<path d="M46.5794 5.89039H48.9085V1.73623H51.8537V5.89039H54.1828V0.159776H46.5794V5.89039Z" fill="#133D6F"/>
<path d="M5.44806 4.20353V5.78142H7.798V0.269043H2.76091C1.11701 0.269043 0.168605 0.965775 0.168605 2.16456V2.26702C0.168605 3.19941 0.7798 3.81418 1.88627 4.02935L0 5.78142H2.68715L4.36266 4.20353H5.44806ZM5.44806 1.62152V2.79982H3.40372C2.67661 2.79982 2.51854 2.50268 2.51854 2.23629V2.1953C2.51854 1.93915 2.67661 1.62152 3.39318 1.62152H5.44806Z" fill="#133D6F"/>
<path d="M10.084 2.41992H28.6378V4.3022H10.084V2.41992Z" fill="#133D6F"/>
</svg>
