<svg width="70" height="75" viewBox="0 0 70 75" fill="none" xmlns="http://www.w3.org/2000/svg">
<path d="M0 10L16 0H70V48L55 58H18.5L0 75V10Z" fill="#133D6F"/>
<g clip-path="url(#clip0)">
<path d="M49.436 21.0497C49.436 21.0497 46.3616 16.8315 44.944 14.8806C45.0294 15.2497 45.0635 15.6539 45.0123 16.0758C44.961 16.7261 44.7902 17.3939 44.5511 18.0618C44.0558 19.4152 43.2189 20.8036 42.1941 22.2097C41.6817 22.9127 41.101 23.5982 40.4861 24.3012C40.3324 24.477 40.1787 24.6527 40.0079 24.8109L39.8883 24.934L39.7517 25.057L39.4955 25.303C39.1539 25.637 38.8294 25.9885 38.4707 26.3224C37.036 27.6933 35.4305 29.0115 33.6712 30.2243C31.912 31.437 29.9991 32.5618 27.9324 33.4582C27.6762 33.5812 27.42 33.6691 27.1467 33.7746C26.8734 33.88 26.6172 33.9855 26.344 34.0733C25.7974 34.2491 25.2679 34.4249 24.7043 34.5479C24.431 34.6182 24.1406 34.6885 23.8503 34.7236C23.5599 34.7588 23.2867 34.8291 22.9963 34.8467C22.7059 34.8643 22.4156 34.8818 22.1252 34.8994L21.22 34.8291L20.8101 34.7588C20.6564 34.7236 20.5026 34.6885 20.3489 34.6358C20.2294 34.583 20.1098 34.5479 19.9902 34.4952L24.4652 40.6467C24.4652 40.6467 24.4822 40.6643 24.4822 40.6818L24.4993 40.6994C26.5318 43.4237 34.0982 41.7891 41.0156 36.4461C41.0327 36.4285 41.0497 36.4109 41.0668 36.4109C47.9842 31.0679 51.4172 23.8091 49.436 21.0497Z" fill="white"/>
<path d="M43.544 13.6145C43.2707 13.4036 42.9804 13.2982 42.7583 13.2103C42.5363 13.14 42.3484 13.0873 42.2118 13.0697C42.1093 13.0521 42.041 13.0345 42.0239 13.0345C42.0068 13.0345 41.7506 13.017 41.2553 12.9818C40.9991 12.9818 40.6917 13.017 40.3159 13.0345C40.128 13.0697 39.9402 13.0873 39.7181 13.1224C39.6156 13.14 39.4961 13.1576 39.3936 13.1751C39.274 13.1927 39.1716 13.2279 39.052 13.263C38.1126 13.4564 36.9853 13.843 35.7385 14.3527C34.4917 14.88 33.1082 15.583 31.6906 16.4794C30.2559 17.3758 28.7699 18.4303 27.2839 19.6606C26.9253 19.977 26.5324 20.2933 26.1738 20.6273C25.8151 20.9612 25.4393 21.3127 25.0806 21.6467C24.722 22.0158 24.3633 22.3848 23.9875 22.7539C23.8167 22.9473 23.6459 23.123 23.4581 23.3164C23.2873 23.5097 23.1165 23.703 22.9457 23.9139C22.2625 24.7224 21.5963 25.5661 20.9985 26.4624C20.3837 27.3764 19.8542 28.3254 19.4614 29.3448C19.2735 29.8545 19.1198 30.3818 19.0514 30.8915C18.966 31.4188 19.0002 31.9461 19.1368 32.403C19.2052 32.6315 19.3076 32.86 19.4614 33.0357C19.5297 33.1412 19.6151 33.2115 19.6834 33.2994C19.7859 33.3697 19.8542 33.4576 19.9567 33.5103L20.1104 33.6158L20.2812 33.7036C20.3837 33.7564 20.5032 33.7915 20.6228 33.8442C20.7424 33.8794 20.8619 33.9145 20.9644 33.9497L21.3743 34.02L22.1429 34.0727C22.4162 34.0727 22.6724 34.0376 22.9457 34.0376C23.2189 34.02 23.4751 33.9673 23.7484 33.9321C24.0217 33.897 24.2779 33.8267 24.5512 33.7739C25.0806 33.6685 25.6101 33.4927 26.1225 33.317C26.3787 33.2291 26.6349 33.1236 26.8911 33.0357C27.1473 32.9303 27.4035 32.8424 27.6426 32.737C29.641 31.8758 31.5368 30.8036 33.279 29.6261C35.0211 28.4485 36.6267 27.1654 38.0272 25.8648C38.3859 25.5485 38.7275 25.197 39.0691 24.863L39.3253 24.617L39.4448 24.4939L39.5644 24.3709C39.7181 24.1951 39.8889 24.037 40.0426 23.8612C40.6575 23.1933 41.2211 22.5079 41.7335 21.84C42.7583 20.4867 43.5611 19.1509 44.0393 17.8679C44.2784 17.2351 44.4322 16.62 44.4834 16.04C44.5346 15.46 44.4663 14.9503 44.2955 14.5461C44.0906 14.1242 43.8173 13.8254 43.544 13.6145Z" fill="white"/>
<path d="M48.8556 22.86C48.8385 22.5261 48.7531 22.157 48.5652 21.8406L48.5823 21.823L46.0715 18.3782L45.7983 18.0091L45.6104 18.4485C45.3713 19.0109 45.1492 19.5909 44.8418 20.1358L44.6198 20.54C44.5514 20.6806 44.466 20.8036 44.3806 20.9442L43.8853 21.7352L43.3388 22.5085L43.0655 22.8952L42.7922 23.2642L42.2286 24.0024L41.6137 24.723L41.3063 25.0745L40.9988 25.4261L40.6914 25.76L40.3669 26.0939L40.0423 26.4279L39.7178 26.7618C39.4958 26.9727 39.2737 27.2012 39.0517 27.4121C38.5906 27.8339 38.1465 28.2733 37.6682 28.66L36.9509 29.2576C36.7118 29.4509 36.4726 29.6442 36.2164 29.8376C35.9773 30.0309 35.7382 30.2242 35.482 30.4176L34.7305 30.98L34.3547 31.2612L33.979 31.5249L33.2104 32.0521C32.9542 32.2279 32.698 32.3861 32.4247 32.5618L31.639 33.0539C31.1096 33.3703 30.563 33.6515 30.0164 33.9503C29.7432 34.0909 29.4528 34.2315 29.1795 34.3545C28.9063 34.4952 28.6159 34.6358 28.3426 34.7588C27.779 35.0049 27.2153 35.2509 26.6346 35.4618L25.7636 35.7606L24.8754 36.0067C24.2776 36.1649 23.6627 36.2703 23.0479 36.3582C23.6627 36.3055 24.2776 36.2527 24.8925 36.1121L25.7977 35.9012L26.6859 35.6376C27.2837 35.4442 27.8644 35.2333 28.4451 35.0049C29.0258 34.7588 29.5895 34.5127 30.1531 34.2491C30.6996 33.9503 31.2804 33.6867 31.8098 33.3703L32.6297 32.8958C32.9029 32.7376 33.1762 32.5794 33.4324 32.4036L34.2181 31.8939L34.6109 31.6303L34.9867 31.3667C35.4991 31.0152 36.0115 30.6636 36.5068 30.2594C36.7459 30.0661 37.0021 29.8727 37.2583 29.6794L37.9757 29.0818C38.471 28.6776 38.9151 28.2558 39.3933 27.8339C39.6324 27.623 39.8545 27.3945 40.0765 27.1836L40.4181 26.8497L40.7426 26.5158L41.0671 26.1818L41.3917 25.8303L42.6214 24.6C42.6214 24.6 44.4148 23.1236 45.5591 24.7933C46.5327 26.1994 46.3107 29.0642 43.7487 32.0521C42.8605 33.0891 41.2209 34.4952 40.179 35.3739C40.4523 35.163 40.7255 34.9697 40.9988 34.7588C41.2721 34.5479 41.5283 34.337 41.7845 34.1085C42.0407 33.8976 42.2969 33.6515 42.5531 33.4406C42.8093 33.2121 43.0484 32.9836 43.2875 32.7376C43.7828 32.263 44.244 31.7533 44.7052 31.2436C44.9272 30.98 45.1492 30.7164 45.3713 30.4527C45.5762 30.1891 45.7983 29.9079 46.0032 29.6267C46.2082 29.3455 46.4131 29.0642 46.601 28.783C46.7889 28.5018 46.9768 28.203 47.1476 27.9042C47.5063 27.3067 47.8308 26.6915 48.1041 26.0588C48.2407 25.7424 48.3773 25.4085 48.4798 25.0745C48.5994 24.7406 48.6848 24.3891 48.7531 24.0376C48.8385 23.5982 48.8726 23.2467 48.8556 22.86Z" fill="#133D6F"/>
<path d="M43.6115 16.1109C43.5603 16.5503 43.4407 17.0424 43.2358 17.5521C42.8088 18.7121 42.0744 19.96 41.0666 21.2957C40.725 21.7527 40.3493 22.2097 39.9394 22.6667C33.7394 24.4594 20.6903 28.0976 20.5195 28.1503C20.6562 27.8691 20.8953 27.4473 21.0148 27.2715C21.2027 27.2012 21.3906 27.1309 21.5956 27.0606C28.1713 24.7582 39.6148 20.9618 39.7515 20.6279C39.854 20.3642 26.9416 24.4945 22.5179 25.76C22.2958 25.8303 22.0909 25.883 21.9201 25.9357C22.3129 25.4085 22.7228 24.8636 23.184 24.3364L23.6964 23.7564L23.7989 23.6333C24.0551 23.5279 24.3283 23.4224 24.6358 23.2994C29.5036 21.3309 39.5465 17.6048 43.6115 16.1109Z" fill="#133D6F"/>
</g>
<defs>
<clipPath id="clip0">
<rect width="31" height="29" fill="white" transform="translate(19 13)"/>
</clipPath>
</defs>
</svg>
