<svg width="182" height="165" viewBox="0 0 182 165" fill="none" xmlns="http://www.w3.org/2000/svg">
<g clip-path="url(#clip0)">
<path d="M52.3998 160.1C44.4998 160.1 38.7998 158.2 36.0998 154.6L35.7998 154.2L17.2998 129.6L18.1998 129.7H18.2998C19.5998 129.7 20.8998 129.6 22.0998 129.5L23.6998 129.4C25.0998 129.3 26.3998 129.1 27.4998 128.9C27.9998 128.8 28.5998 128.7 29.0998 128.7C30.8998 128.5 32.6998 128.1 34.1998 127.7L34.4998 127.6C37.2998 127 39.9998 126.2 42.6998 125.3L44.4998 124.7C45.6998 124.3 46.6998 123.9 47.7998 123.5L50.3998 122.5C51.6998 122 52.9998 121.5 54.2998 120.9C65.5998 116.2 77.0998 109.8 88.5998 102.1C98.7998 95.2 108.4 87.6 117.3 79.4C118.7 78.2 120.1 76.8 121.4 75.5C122.1 74.8 122.7 74.2 123.4 73.6L125.7 71.4L127.5 69.5C128.1 68.8 128.8 68.2 129.4 67.5C133.2 63.4 136.6 59.3 139.7 55.3C146.5 46.3 151.3 38.2 154.2 30.5C155 28.4 155.6 26.4 156.1 24.4L174.3 48.7C183.9 61.6 164.6 100.4 126.3 129.2L126 129.4C100.9 148.4 72.5998 160.1 52.3998 160.1Z" fill="white"/>
<path d="M178.2 45.8C178.2 45.8 160.2 21.8 151.9 10.7C152.4 12.8 152.6 15.1 152.3 17.5C152 21.2 151 25 149.6 28.8C146.7 36.5 141.8 44.4 135.8 52.4C132.8 56.4 129.4 60.3 125.8 64.3C124.9 65.3 124 66.3 123 67.2L122.3 67.9L121.5 68.6L120 70C118 71.9 116.1 73.9 114 75.8C105.6 83.6 96.1998 91.1 85.8998 98C75.5998 104.9 64.3998 111.3 52.2998 116.4C50.7998 117.1 49.2998 117.6 47.6998 118.2C46.0998 118.8 44.5998 119.4 42.9998 119.9C39.7998 120.9 36.6998 121.9 33.3998 122.6C31.7998 123 30.0998 123.4 28.3998 123.6C26.6998 123.8 25.0998 124.2 23.3998 124.3C21.6998 124.4 19.9998 124.5 18.2998 124.6L12.9998 124.2L10.5998 123.8C9.6998 123.6 8.7998 123.4 7.8998 123.1C7.1998 122.8 6.4998 122.6 5.7998 122.3L31.9998 157.3C31.9998 157.3 32.0998 157.4 32.0998 157.5L32.1998 157.6C34.0998 160 36.6998 161.9 39.9998 163.1L40.0998 163.2H40.1998C58.0998 169.7 94.8998 159 129 133.5C129.1 133.4 129.2 133.3 129.3 133.3C169.7 102.8 189.8 61.5 178.2 45.8ZM174.2 70.2L150.5 38.7C150.7 38.3 150.9 37.9 151.1 37.4L174.6 68.8C174.5 69.3 174.4 69.7 174.2 70.2ZM171.5 76.7L147.2 44.4C147.4 44 147.7 43.6 147.9 43.3L172.1 75.5C171.9 75.9 171.7 76.3 171.5 76.7ZM168.5 82.7L143.7 49.8C143.9 49.5 144.2 49.1 144.4 48.8L169 81.6C168.9 81.9 168.7 82.3 168.5 82.7ZM161.6 93.5L136.2 59.8C136.4 59.6 136.6 59.3 136.8 59.1L162.1 92.8C161.9 93 161.8 93.3 161.6 93.5ZM153.9 103.4L128 69.1C128.2 68.9 128.4 68.6 128.7 68.4L154.5 102.8C154.3 102.9 154.1 103.2 153.9 103.4ZM145.6 112.4L119.4 77.6C119.6 77.4 119.8 77.2 120 77L146.1 111.8C146 112.1 145.8 112.3 145.6 112.4ZM132.2 124.7L105.8 89.6C106 89.5 106.2 89.3 106.3 89.2L132.6 124.3C132.5 124.4 132.3 124.5 132.2 124.7ZM54.6998 142.2L42.1998 125.6L54.6998 142.2ZM48.1998 123.5L73.2998 156.8L48.1998 123.5ZM53.9998 121.2C53.9998 121.2 54.0998 121.2 54.0998 121.1L79.3998 154.8C79.3998 154.8 79.3998 154.8 79.2998 154.8L53.9998 121.2ZM59.6998 118.7C59.7998 118.7 59.7998 118.6 59.8998 118.6L85.4998 152.6H85.3998L59.6998 118.7ZM65.1998 116C65.2998 116 65.3998 115.9 65.3998 115.9L91.0998 150.2C90.9998 150.2 90.9998 150.3 90.8998 150.3L65.1998 116ZM70.6998 113.2C70.7998 113.1 70.8998 113.1 70.9998 113.1L96.8998 147.6C96.7998 147.6 96.7998 147.7 96.6998 147.7L70.6998 113.2ZM75.9998 110.2C76.0998 110.1 76.1998 110.1 76.2998 110L102.3 144.7C102.2 144.7 102.1 144.8 102 144.8L75.9998 110.2ZM81.1998 107.1C81.2998 107 81.3998 107 81.5998 106.9L107.7 141.7C107.6 141.8 107.5 141.8 107.4 141.9L81.1998 107.1ZM86.2998 103.8C86.3998 103.7 86.5998 103.6 86.6998 103.5L112.9 138.4C112.8 138.5 112.7 138.5 112.6 138.6L86.2998 103.8ZM91.2998 100.5C91.3998 100.4 91.5998 100.3 91.6998 100.2L118 135.2C117.9 135.3 117.7 135.4 117.6 135.5L91.2998 100.5ZM96.1998 97C96.3998 96.9 96.4998 96.8 96.6998 96.7L123 131.8C122.9 131.9 122.7 132 122.6 132.1L96.1998 97ZM101.1 93.3C101.3 93.2 101.4 93 101.6 92.9L127.9 128C127.8 128.1 127.6 128.2 127.5 128.3L101.1 93.3ZM110.4 85.8C110.6 85.6 110.8 85.5 111 85.3L137.3 120.3C137.1 120.4 137 120.6 136.8 120.7L110.4 85.8ZM115 81.8C115.2 81.6 115.4 81.4 115.6 81.3L141.8 116.3C141.6 116.5 141.4 116.6 141.3 116.8L115 81.8ZM123.8 73.4L124.4 72.8L150.4 107.4C150.2 107.6 150 107.8 149.8 108L123.8 73.4ZM132.2 64.5C132.4 64.2 132.6 64 132.9 63.7L158.5 97.8C158.3 98.1 158.1 98.3 157.9 98.6L132.2 64.5ZM139.9 55.1C140.2 54.7 140.4 54.4 140.7 54L165.7 87.3C165.5 87.6 165.3 88 165 88.3L139.9 55.1ZM153.4 32.5C153.6 32 153.8 31.5 154 31.1L176.5 61.1C176.4 61.7 176.3 62.3 176.2 62.9L153.4 32.5ZM174.3 48.8C175.1 49.9 175.7 51.3 176.1 52.7L155.7 25.7C155.8 25.3 155.9 24.9 156 24.5L174.3 48.8Z" fill="#A1B2C7"/>
<path d="M143.7 3.50002C142.1 2.30002 140.4 1.70002 139.1 1.20002C137.8 0.800025 136.7 0.500024 135.9 0.400024C135.3 0.300024 134.9 0.200024 134.8 0.200024C134.7 0.200024 133.2 0.100024 130.3 -0.0999756C128.8 -0.0999756 127 0.100024 124.8 0.200024C123.7 0.400024 122.6 0.500024 121.3 0.700024C120.7 0.800024 120 0.900024 119.4 1.00002C118.7 1.10002 118.1 1.30002 117.4 1.50002C111.9 2.60002 105.3 4.80002 97.9999 7.70002C90.6999 10.7 82.5999 14.7 74.2999 19.8C65.8999 24.9 57.1999 30.9 48.4999 37.9C46.3999 39.7 44.0999 41.5 41.9999 43.4C39.8999 45.3 37.6999 47.3 35.5999 49.2C33.4999 51.3 31.3999 53.4 29.1999 55.5C28.1999 56.6 27.1999 57.6 26.0999 58.7C25.0999 59.8 24.0999 60.9 23.0999 62.1C19.0999 66.7 15.1999 71.5 11.6999 76.6C8.09994 81.8 4.99994 87.2 2.69994 93C1.59994 95.9 0.69994 98.9 0.29994 101.8C-0.20006 104.8 -5.99623e-05 107.8 0.79994 110.4C1.19994 111.7 1.79994 113 2.69994 114C3.09994 114.6 3.59994 115 3.99994 115.5C4.59994 115.9 4.99994 116.4 5.59994 116.7L6.49994 117.3L7.49994 117.8C8.09994 118.1 8.79994 118.3 9.49994 118.6C10.1999 118.8 10.8999 119 11.4999 119.2L13.8999 119.6L18.3999 119.9C19.9999 119.9 21.4999 119.7 23.0999 119.7C24.6999 119.6 26.1999 119.3 27.7999 119.1C29.3999 118.9 30.8999 118.5 32.4999 118.2C35.5999 117.6 38.6999 116.6 41.6999 115.6C43.1999 115.1 44.6999 114.5 46.1999 114C47.6999 113.4 49.1999 112.9 50.5999 112.3C62.2999 107.4 73.3999 101.3 83.5999 94.6C93.7999 87.9 103.2 80.6 111.4 73.2C113.5 71.4 115.5 69.4 117.5 67.5L119 66.1L119.7 65.4L120.4 64.7C121.3 63.7 122.3 62.8 123.2 61.8C126.8 58 130.1 54.1 133.1 50.3C139.1 42.6 143.8 35 146.6 27.7C148 24.1 148.9 20.6 149.2 17.3C149.5 14 149.1 11.1 148.1 8.80002C146.9 6.40002 145.3 4.70002 143.7 3.50002Z" fill="#A1B2C7"/>
</g>
<defs>
<clipPath id="clip0">
<rect width="181.5" height="165" fill="white"/>
</clipPath>
</defs>
</svg>
