<svg width="512" height="512" viewBox="0 0 512 512" fill="none" xmlns="http://www.w3.org/2000/svg">
<g clip-path="url(#clip0)">
<path d="M0 88.5071L117.029 -6H512V438.272L402.286 511.5H135.314H0V88.5071Z" fill="#133D6F"/>
<path d="M413.992 187.361C413.992 187.361 381.462 142.729 366.462 122.087C367.366 125.992 367.727 130.269 367.185 134.733C366.643 141.613 364.836 148.68 362.306 155.747C357.065 170.066 348.21 184.757 337.367 199.635C331.945 207.073 325.801 214.326 319.295 221.765C317.668 223.624 316.042 225.484 314.235 227.158L312.97 228.459L311.524 229.761L308.813 232.365C305.199 235.898 301.765 239.617 297.97 243.151C282.789 257.656 265.802 271.604 247.188 284.435C228.574 297.267 208.333 309.169 186.466 318.653C183.755 319.955 181.045 320.884 178.153 322C175.261 323.116 172.551 324.232 169.659 325.162C163.876 327.021 158.274 328.881 152.31 330.183C149.419 330.927 146.346 331.671 143.274 332.042C140.202 332.414 137.31 333.158 134.238 333.344C131.166 333.53 128.094 333.716 125.022 333.902L115.443 333.158L111.106 332.414C109.48 332.042 107.853 331.671 106.227 331.113C104.962 330.555 103.697 330.183 102.432 329.625L149.78 394.713C149.78 394.713 149.961 394.899 149.961 395.085L150.142 395.271C171.647 424.096 251.706 406.801 324.897 350.267C325.078 350.081 325.258 349.895 325.439 349.895C398.63 293.362 434.955 216.558 413.992 187.361Z" fill="white"/>
<path d="M351.644 108.695C348.753 106.463 345.68 105.347 343.331 104.418C340.982 103.674 338.994 103.116 337.548 102.93C336.464 102.744 335.741 102.558 335.56 102.558C335.379 102.558 332.669 102.372 327.428 102C324.717 102 321.464 102.372 317.488 102.558C315.5 102.93 313.512 103.116 311.163 103.488C310.079 103.674 308.814 103.86 307.729 104.046C306.464 104.232 305.38 104.604 304.115 104.975C294.175 107.021 282.248 111.112 269.055 116.505C255.863 122.084 241.225 129.523 226.225 139.007C211.044 148.491 195.322 159.649 179.599 172.667C175.804 176.014 171.648 179.362 167.853 182.895C164.057 186.429 160.082 190.148 156.287 193.681C152.491 197.586 148.696 201.492 144.72 205.397C142.913 207.443 141.106 209.302 139.118 211.348C137.311 213.394 135.504 215.439 133.697 217.671C126.468 226.225 119.42 235.152 113.095 244.636C106.589 254.306 100.986 264.348 96.8299 275.134C94.842 280.527 93.2155 286.106 92.4926 291.499C91.589 297.078 91.9505 302.657 93.3962 307.492C94.1191 309.91 95.2034 312.327 96.8299 314.187C97.5528 315.303 98.4564 316.047 99.1792 316.977C100.264 317.72 100.986 318.65 102.071 319.208L103.697 320.324L105.504 321.254C106.589 321.812 107.854 322.184 109.119 322.742C110.384 323.113 111.649 323.485 112.733 323.857L117.07 324.601L125.203 325.159C128.094 325.159 130.805 324.787 133.697 324.787C136.588 324.601 139.299 324.043 142.19 323.671C145.082 323.299 147.793 322.556 150.684 321.998C156.287 320.882 161.889 319.022 167.31 317.163C170.021 316.233 172.732 315.117 175.443 314.187C178.154 313.071 180.864 312.141 183.394 311.026C204.539 301.913 224.598 290.569 243.032 278.11C261.465 265.65 278.453 252.074 293.272 238.313C297.067 234.966 300.681 231.246 304.296 227.713L307.006 225.109L308.271 223.808L309.536 222.506C311.163 220.646 312.97 218.973 314.597 217.113C321.102 210.046 327.066 202.794 332.488 195.727C343.331 181.407 351.825 167.274 356.885 153.699C359.415 147.004 361.041 140.495 361.584 134.358C362.126 128.221 361.403 122.828 359.596 118.551C357.427 114.088 354.536 110.926 351.644 108.695Z" fill="white"/>
<path d="M407.845 206.519C407.664 202.986 406.761 199.08 404.773 195.733L404.954 195.547L378.388 159.098L375.496 155.192L373.508 159.842C370.978 165.792 368.629 171.929 365.376 177.694L363.027 181.971C362.304 183.459 361.4 184.761 360.497 186.249L355.256 194.617L349.473 202.8L346.581 206.891L343.69 210.796L337.726 218.607L331.22 226.231L327.967 229.951L324.714 233.67L321.461 237.203L318.028 240.737L314.594 244.27L311.16 247.803C308.811 250.035 306.462 252.453 304.112 254.684C299.233 259.147 294.534 263.796 289.474 267.888L281.884 274.211C279.354 276.256 276.824 278.302 274.113 280.347C271.583 282.393 269.053 284.439 266.342 286.484L258.39 292.435L254.414 295.411L250.439 298.2L242.306 303.779C239.595 305.639 236.885 307.312 233.993 309.172L225.68 314.379C220.078 317.727 214.295 320.702 208.512 323.863C205.62 325.351 202.548 326.839 199.657 328.141C196.765 329.628 193.693 331.116 190.801 332.418C184.838 335.021 178.874 337.625 172.729 339.857L163.513 343.018L154.115 345.621C147.79 347.295 141.284 348.411 134.778 349.341C141.284 348.783 147.79 348.225 154.296 346.737L163.874 344.506L173.272 341.716C179.597 339.671 185.741 337.439 191.886 335.021C198.03 332.418 203.994 329.814 209.958 327.025C215.741 323.863 221.885 321.074 227.487 317.727L236.162 312.706C239.053 311.032 241.945 309.358 244.656 307.498L252.969 302.105L257.125 299.316L261.101 296.526C266.523 292.807 271.944 289.088 277.185 284.811C279.715 282.765 282.426 280.719 285.137 278.674L292.727 272.351C297.968 268.074 302.666 263.611 307.727 259.147C310.257 256.916 312.606 254.498 314.955 252.267L318.57 248.733L322.003 245.2L325.437 241.667L328.871 237.947L341.883 224.93C341.883 224.93 360.858 209.308 372.966 226.975C383.267 241.852 380.918 272.165 353.81 303.779C344.413 314.751 327.064 329.628 316.04 338.927C318.931 336.695 321.823 334.649 324.714 332.418C327.606 330.186 330.317 327.955 333.027 325.537C335.738 323.306 338.449 320.702 341.16 318.47C343.87 316.053 346.401 313.635 348.931 311.032C354.171 306.011 359.051 300.618 363.93 295.225C366.28 292.435 368.629 289.646 370.978 286.856C373.147 284.067 375.496 281.091 377.665 278.116C379.834 275.14 382.002 272.165 383.99 269.189C385.978 266.214 387.966 263.053 389.773 259.891C393.568 253.568 397.002 247.06 399.893 240.365C401.339 237.017 402.785 233.484 403.869 229.951C405.134 226.417 406.038 222.698 406.761 218.979C407.664 214.33 408.026 210.61 407.845 206.519Z" fill="#133D6F"/>
<path d="M352.364 135.106C351.821 139.756 350.556 144.963 348.388 150.356C343.87 162.629 336.099 175.833 325.436 189.966C321.822 194.801 317.846 199.637 313.509 204.472C247.908 223.44 109.838 261.935 108.031 262.493C109.477 259.518 112.007 255.054 113.272 253.195C115.26 252.451 117.248 251.707 119.417 250.963C188.993 226.602 310.075 186.433 311.521 182.9C312.605 180.11 175.982 223.812 129.175 237.202C126.826 237.946 124.657 238.503 122.85 239.061C127.007 233.482 131.344 227.717 136.223 222.138L141.645 216.002L142.729 214.7C145.44 213.584 148.332 212.468 151.585 211.166C203.09 190.338 309.352 150.914 352.364 135.106Z" fill="#133D6F"/>
</g>
<defs>
<clipPath id="clip0">
<rect width="512" height="512" fill="white"/>
</clipPath>
</defs>
</svg>
