<svg width="83" height="131" viewBox="0 0 83 131" fill="none" xmlns="http://www.w3.org/2000/svg">
<g clip-path="url(#clip0)">
<path d="M81.3998 118.3C81.3998 118.3 81.6998 118 82.1998 117.2C82.6998 116.4 82.7998 114.4 82.4998 112.9C82.0998 111.4 80.7998 110 80.4998 109.1C80.0998 108.2 78.8998 105.3 78.8998 105.3C78.8998 105.3 79.0998 105 79.2998 104.5C79.4998 104.1 79.6998 102.5 79.3998 101.7C79.0998 100.8 78.1998 96.3 77.9998 95.4C77.7998 94.5 75.4998 88.8 75.1998 88C74.7998 87.2 73.7998 85.7 73.7998 85.7C73.7998 85.7 72.9998 84.1 72.1998 82.7C71.4998 81.3 70.4998 80.4 70.4998 80.4C70.4998 80.4 70.6998 80.2 70.7998 80C70.8998 79.7 71.1998 79.1 70.6998 78.2C70.1998 77.3 69.8998 75.7 69.1998 74.5C68.4998 73.3 65.7998 67.4 64.8998 65.2C63.8998 63 64.0998 62.5 62.8998 61.3C61.6998 60 61.4998 58.6 60.9998 57.8C60.4998 57 59.5998 56.5 59.0998 56.1C58.5998 55.7 58.9998 55.5 58.7998 54.8C58.5998 54 57.8998 52.6 57.6998 52.2C57.3998 51.8 57.2998 51.3 57.4998 50.8C57.6998 50.3 57.1998 48.6 56.2998 47.7C55.4998 46.8 53.0998 44 52.6998 43.1C52.2998 42.3 52.2998 41.9 52.3998 41.1C52.4998 40.3 52.4998 39.1 52.3998 37.4C52.2998 35.7 51.0998 32.3 50.1998 31C49.2998 29.7 47.0998 27.5 46.0998 25.9C45.0998 24.3 42.9998 22.6 40.6998 20.7C38.3998 18.8 34.9998 17 34.9998 17C34.9998 17 35.1998 15.9 35.4998 15.3C35.7998 14.7 36.6998 13.2 36.7998 12.8C36.8998 12.4 37.0998 12.1 37.3998 11.8C37.6998 11.6 37.7998 9.29999 37.6998 8.99999C37.5998 8.69999 37.4998 4.79999 37.2998 3.99999C37.0998 3.19999 36.2998 2.49999 35.5998 2.19999C35.2998 2.09999 34.1998 2.09999 34.1998 2.09999L32.7998 1.29999C32.7998 1.29999 32.1998 0.299987 31.3998 0.199987C30.6998 -1.27703e-05 29.2998 -0.100013 26.6998 0.899987C24.0998 1.79999 21.6998 3.89999 21.6998 3.89999C21.6998 3.89999 20.6998 3.99999 20.3998 4.49999C20.0998 4.99999 19.0998 8.39999 19.0998 8.39999L19.9998 8.99999C19.9998 8.99999 19.6998 10.3 19.5998 10.8C19.4998 11.3 19.6998 13 19.6998 13C19.6998 13 16.5998 13.2 14.9998 13.4C13.3998 13.6 10.0998 15.1 8.09977 15.6C6.09977 16.1 5.79977 17.6 5.09977 19.7C4.39977 21.7 5.99977 25 5.99977 25C5.99977 25 5.89977 26 5.59977 27C5.29977 28 4.59977 31.8 3.89977 33.6C3.19977 35.4 4.89977 37.4 5.09977 37.7C5.29977 38 5.29977 39 5.29977 39L4.69977 39.5C4.69977 39.5 3.69977 39.2 2.89977 39.2C2.09977 39.2 0.999771 40 0.399771 40.1C-0.200229 40.2 1.39977 41.9 1.39977 41.9C1.39977 41.9 0.599771 42.4 0.599771 42.7C0.599771 43 1.29977 43.4 2.09977 43.8C2.89977 44.2 3.19977 44.9 3.99977 46C4.79977 47 5.59977 49 5.99977 49.9C6.39977 50.7 7.29977 51 7.29977 51C7.29977 51 6.99977 51 7.09977 51.3C7.19977 51.5 8.29977 52.5 8.29977 52.5H8.99977C8.99977 52.5 8.89977 52.7 8.89977 52.9C8.89977 53 10.5998 53.7 10.5998 53.7L10.3998 67.1C10.3998 67.1 8.29977 68.8 8.19977 69.1C7.99977 69.2 7.99977 69.5 7.99977 69.5C7.99977 69.5 6.09977 71.1 5.39977 72.5C4.69977 74 5.39977 75.4 5.99977 75.9C6.59977 76.4 7.69977 76.9 8.09977 77.1C8.49977 77.3 9.19977 77.1 9.19977 77.1L8.99977 77.4C8.99977 77.4 7.29977 78.1 6.79977 78.1C6.29977 78.2 5.89977 78.6 5.59977 79C5.39977 79.4 5.59977 80.3 6.19977 80.7C6.79977 81.1 8.49977 80.8 8.49977 80.8L10.1998 80.9C10.1998 80.9 10.0998 87.6 9.99977 93C9.89977 98.5 9.89977 122.8 9.79977 123.2C9.69977 123.6 8.89977 124.1 7.79977 124.7C6.59977 125.3 3.99977 125.2 2.89977 125.2C1.79977 125.2 1.09977 125.6 0.499771 126.1C-0.100229 126.6 -0.100229 127.9 0.299771 128.8C0.699772 129.7 1.99977 130.5 2.39977 130.6C2.79977 130.7 4.49977 130.7 5.69977 130.5C6.89977 130.3 9.89977 129.5 10.6998 128.8C11.4998 128.1 11.5998 127.1 11.5998 124.9C11.5998 122.7 12.1998 80.3 12.1998 80.3C12.1998 80.3 14.6998 78.9 14.8998 78.7C15.1998 78.5 16.2998 77.8 17.2998 76.1C18.2998 74.5 21.5998 69.4 21.7998 69.2C21.8998 69 23.3998 69.1 23.3998 69.1C23.3998 69.1 24.4998 71.7 25.1998 72.7C25.8998 73.7 29.4998 80 30.3998 81.5C31.1998 83.1 32.5998 86.9 33.7998 87.4C35.0998 87.9 36.4998 86.9 36.4998 86.9C36.4998 86.9 37.2998 88.8 37.4998 89.9C37.6998 91 39.3998 94.5 39.7998 95.1C40.1998 95.7 40.6998 98.9 41.9998 101C43.2998 103.1 45.9998 106.9 47.3998 108.5C48.7998 110.1 52.1998 113.7 52.1998 113.7C52.1998 113.7 52.7998 115.6 53.4998 116.6C54.1998 117.6 55.3998 119.7 55.9998 120.3C56.5998 120.9 57.4998 121.2 58.3998 121.2C59.2998 121.2 60.0998 120.8 60.0998 120.8C60.0998 120.8 61.3998 121.8 62.2998 122.6C63.0998 123.4 63.4998 123.2 63.5998 123.2C63.6998 123.2 63.3998 122.3 63.3998 122.3L62.4998 119.2C62.4998 119.2 63.0998 118.6 63.3998 118C63.6998 117.5 63.7998 116.7 63.2998 115.5C62.7998 114.3 62.0998 113.7 61.7998 113.2C61.4998 112.7 60.6998 111.3 60.4998 110.8C60.2998 110.2 59.3998 109.2 59.3998 109.2C59.3998 109.2 58.7998 107.7 58.4998 107.1C58.1998 106.5 57.8998 105.4 57.8998 104.7C57.7998 104 57.2998 101.6 56.2998 98.6C55.2998 95.6 53.5998 93 53.3998 92.5C53.1998 92 51.8998 90.1 51.6998 89.7C51.4998 89.3 51.3998 88.7 51.3998 88.2C51.3998 87.7 50.4998 86 49.8998 83.8C49.2998 81.7 48.7998 81 48.2998 80.4C47.7998 79.8 47.5998 78 47.5998 78C47.5998 78 47.6998 77 47.4998 76.4C47.2998 75.7 46.3998 74.4 46.2998 73.7C46.1998 73 44.9998 71.2 44.9998 70.9C44.9998 70.6 45.1998 70.2 45.2998 70.4C45.4998 70.6 46.4998 72.3 46.7998 73.1C47.0998 73.9 48.2998 75.3 49.6998 77.3C51.0998 79.3 52.0998 82.3 52.3998 83.1C52.6998 83.8 53.0998 84.9 53.5998 85.1C54.0998 85.3 56.4998 85.1 56.4998 85.1C56.4998 85.1 56.8998 86.3 57.9998 88.2C59.0998 90.1 61.2998 90.9 61.5998 91.2C61.8998 91.5 62.2998 93.3 62.7998 93.9C63.1998 94.5 63.8998 96.5 64.1998 97.4C64.4998 98.2 66.2998 100.5 66.2998 100.5C66.2998 100.5 66.5998 100.9 66.6998 101.2C66.7998 101.5 68.3998 103.8 68.3998 103.8C68.3998 103.8 69.2998 105.4 69.6998 106.4C70.0998 107.4 71.5998 110.5 72.3998 111.6C73.1998 112.7 74.5998 116 75.2998 116.9C76.0998 117.8 76.9998 118.5 77.9998 118.9C78.9998 119.3 79.7998 118.9 79.7998 118.9C79.7998 118.9 80.6998 120.7 80.9998 120.9C81.2998 121.1 81.3998 120.6 81.4998 120.3C81.6998 120.2 81.3998 118.3 81.3998 118.3ZM13.8998 42.8C13.2998 42.6 11.6998 41 11.6998 41C11.6998 41 12.1998 39.9 11.9998 39.6C11.7998 39.3 11.7998 39.1 11.7998 39.1C11.7998 39.1 12.5998 38.1 12.5998 37.7C12.4998 37.3 12.3998 36.6 12.3998 36.6L13.3998 35.1C13.3998 35.1 14.9998 39.3 15.4998 40.1C15.9998 40.9 16.4998 42 16.4998 42L15.9998 42.9C15.9998 42.9 14.4998 43 13.8998 42.8ZM18.7998 61.7C18.1998 61.8 17.4998 62.5 17.4998 62.5L15.8998 62.7C15.8998 62.7 15.7998 62.1 15.1998 62C14.5998 61.9 13.7998 62.7 13.6998 63C13.5998 63.2 12.4998 64.7 12.4998 64.7L12.5998 54.1C12.5998 54.1 13.2998 53.8 13.2998 53.7C13.2998 53.6 13.3998 53.3 13.3998 53.3C13.3998 53.3 14.1998 53.4 14.9998 52.9C15.7998 52.3 16.9998 51.2 16.9998 51.5C17.0998 51.8 17.1998 52.7 17.3998 53.8C17.6998 54.9 18.2998 57.5 18.5998 58C18.8998 58.5 18.9998 58.9 18.9998 58.9L19.4998 60.7C19.4998 60.6 19.2998 61.6 18.7998 61.7Z" fill="#133D6F"/>
</g>
<defs>
<clipPath id="clip0">
<rect width="82.7" height="130.8" fill="white"/>
</clipPath>
</defs>
</svg>
