<svg width="147" height="133" viewBox="0 0 147 133" fill="none" xmlns="http://www.w3.org/2000/svg">
<path d="M58.8198 16.2979C61.0486 16.201 65.6029 17.0724 66.572 17.5566C67.6379 18.0407 70.0604 19.6866 70.1573 19.8803C70.2542 20.1707 70.1573 20.7517 70.1573 20.7517C70.1573 20.7517 71.1263 20.9453 71.417 21.2358C71.7077 21.5263 72.483 23.1722 72.2892 24.2373C72.0954 25.3023 71.3201 26.3673 71.3201 26.3673H70.5449C70.5449 26.3673 70.6418 26.9483 70.3511 27.1419C70.1573 27.3356 69.479 27.4324 69.479 27.7229C69.5759 28.0133 71.1264 30.5307 71.0294 31.0148C70.9325 31.4989 69.7697 31.6925 69.6728 31.8862C69.5759 32.0798 69.7697 33.629 69.5759 33.7258C69.3821 33.8226 68.8007 34.1131 68.8007 34.1131C68.8007 34.1131 69.3821 34.694 69.2852 34.8877C69.1883 35.0813 68.51 35.275 68.51 35.5654C68.51 35.8559 68.6069 36.5336 68.4131 36.9209C68.3162 37.3082 67.6379 37.7923 67.6379 37.7923C67.6379 37.7923 70.5449 39.7288 71.0294 40.6002C71.514 41.4716 71.5139 43.0207 71.8047 43.3112C72.0954 43.6016 72.1923 43.6985 72.7737 43.6016C73.2582 43.5048 73.8396 42.1493 74.9055 41.6652C75.9714 41.1811 78.5878 40.3097 79.8475 40.697C81.1072 41.0843 82.367 41.3747 83.0453 41.8588C83.7236 42.343 84.4988 42.8271 84.4988 42.8271C84.4988 42.8271 137.407 19.5898 137.601 19.5898C137.795 19.5898 141.186 16.6852 141.574 13.1027C141.962 9.52034 141.38 5.26018 141.186 3.61421C140.993 1.96823 140.702 1.19366 141.089 1.09684C141.477 1.00001 142.931 0.515905 143.996 1.3873C145.062 2.2587 146.322 3.80785 146.516 6.13157C146.807 8.4553 146.128 13.49 145.547 15.4265C144.965 17.3629 145.159 18.4279 144.384 18.7184C143.512 19.0089 86.0492 44.8603 86.0492 44.8603C86.0492 44.8603 86.6306 45.7317 85.9523 46.9904C85.274 48.3459 83.2391 51.7347 82.0762 52.4124C80.9134 53.0902 78.6847 53.0902 78.6847 53.0902C78.6847 53.0902 77.9095 55.9948 76.1652 57.7376C74.421 59.4804 73.6458 60.3518 72.0954 60.5455C70.5449 60.7391 65.4091 58.8995 64.8277 58.4154C64.2463 57.9313 63.4711 57.1567 63.4711 57.1567C63.4711 57.1567 63.9556 58.609 62.6959 60.255C61.4362 61.901 61.0486 62.7724 59.9826 63.2565C58.9167 63.7406 57.3663 63.8374 56.8818 64.5152C56.3973 65.1929 54.3623 69.4531 54.3623 69.4531C54.3623 69.4531 61.2424 73.4228 63.3742 75.5528C65.506 77.6829 68.8976 80.4908 68.9945 80.9749C69.1883 81.459 68.8976 83.3954 68.8976 83.3954C68.8976 83.3954 70.3511 84.17 70.8356 84.9446C71.3201 85.7191 73.3551 88.1397 73.2582 88.6238C73.1613 89.1079 73.0644 89.7857 73.0644 89.7857C73.0644 89.7857 74.0334 90.8507 74.2272 91.3348C74.421 91.8189 74.8086 92.9808 74.8086 92.9808C74.8086 92.9808 76.2621 94.5299 77.0374 95.9823C77.8126 97.4346 79.7506 99.4678 80.8165 101.404C81.8824 103.341 84.305 108.956 84.9833 110.118C85.5647 111.183 87.1151 112.345 86.9213 113.023C86.7275 113.701 85.9523 115.347 85.9523 115.347C85.9523 115.347 86.5337 118.154 87.9873 119.123C89.4408 120.091 93.123 119.897 93.7045 120.091C94.189 120.285 96.3208 120.769 96.7084 121.35C97.096 121.931 97.6774 123.383 97.6774 124.061C97.5805 124.642 97.1929 125.707 97.1929 125.707C97.1929 125.707 98.1619 126.675 98.1619 127.353C98.1619 128.03 98.2588 128.418 97.3867 128.999C96.6115 129.579 92.9292 130.838 88.9563 131.516C84.9833 132.097 83.2391 132.484 82.9484 132C82.6577 131.613 81.7855 129.676 81.8824 128.805C81.9793 127.837 80.2351 127.837 79.9444 126.481C79.6537 125.126 79.0723 120.381 78.0064 118.735C76.9405 117.089 75.6807 115.347 75.2931 115.153C74.9055 114.959 73.5489 114.378 72.3861 113.41C71.2232 112.442 65.4091 105.18 65.1184 104.018C64.8277 102.953 65.8936 101.501 65.8936 101.501C65.8936 101.501 64.9246 99.2742 64.7308 99.1774C64.537 99.0806 63.6649 99.4678 63.0835 98.9837C62.5021 98.5965 62.9866 97.7251 62.6959 97.4346C62.3083 97.1441 59.8857 95.014 59.4012 95.014C58.9167 95.014 58.3353 95.3045 57.5601 95.2077C57.5601 94.9172 46.804 88.8175 46.5133 89.0111C46.2226 89.2047 49.4203 100.823 49.2265 101.792C49.0327 102.76 47.773 103.244 47.773 103.244C47.773 103.244 48.9358 108.569 48.6451 108.956C48.3544 109.344 48.742 109.828 48.0637 110.602C47.3854 111.377 46.5133 114.088 43.1217 115.056C39.7302 116.024 37.3076 115.153 35.7572 116.024C34.2068 116.896 30.6214 118.639 28.1989 119.123C25.8732 119.607 23.3538 120.188 22.7724 120.672C22.2878 121.059 20.5436 121.931 19.5746 121.931C18.5087 121.931 17.249 122.318 16.5706 122.415C15.8923 122.511 14.6326 121.64 13.5667 122.027C12.5008 122.415 9.0123 124.448 8.14019 124.835C7.26807 125.222 5.33003 125.416 4.55482 125.416C3.77961 125.416 1.74467 125.513 1.06636 125.319C0.388043 125.126 -0.0964655 124.545 0.291142 123.576C0.678749 122.608 2.13228 120.381 2.51988 120.188C2.90749 119.994 3.5858 119.607 3.5858 119.607L2.90749 118.445C2.90749 118.445 6.10525 115.928 7.17117 115.637C8.23709 115.347 10.272 115.153 10.5627 114.863C10.8534 114.572 14.7295 112.539 15.6985 111.764C16.6675 110.99 18.0242 109.828 18.9932 109.441C19.9622 109.053 28.8772 104.115 29.6524 104.309C30.5245 104.503 31.7842 104.115 31.7842 104.115C31.7842 104.115 31.2028 103.631 30.9121 102.76C30.7183 101.888 28.102 92.6903 27.4236 90.0761C26.7453 87.4619 25.2918 84.9446 24.9042 83.7827C24.5166 82.6208 23.9352 80.3939 23.8383 78.2639C23.7414 76.037 24.4197 73.8101 24.4197 73.8101C24.4197 73.8101 23.6445 71.9704 23.7414 71.2927C23.8383 70.5181 23.5476 64.9993 23.7414 64.5152C23.9352 64.031 23.9352 61.1264 24.7104 60.3518C25.5825 59.5772 27.4236 58.8995 27.7143 58.4154C28.0051 57.9313 27.3267 56.0917 27.8113 55.6076C28.2958 55.1234 28.2958 54.5425 28.2958 54.5425C28.2958 54.5425 26.8422 51.8315 26.9391 48.83C27.1329 45.7317 26.5515 42.2461 27.3267 41.1811C28.102 40.1161 28.5865 40.3097 29.5555 39.2447C30.5245 38.1796 37.9859 29.6593 42.2496 28.4006C46.5133 27.2387 47.2885 27.1419 48.3544 27.3356C49.4203 27.5292 51.1646 28.7879 51.6491 28.8847C52.1336 28.9815 53.2964 28.9815 53.2964 28.9815C53.2964 28.9815 53.1995 26.561 52.8119 25.4959C52.4243 24.4309 52.9088 21.7199 53.1995 21.0421C53.4902 20.3644 56.4942 16.9756 57.0756 16.782C57.657 16.2979 58.8198 16.2979 58.8198 16.2979Z" fill="#133D6F"/>
</svg>
