<svg width="150" height="127" viewBox="0 0 150 127" fill="none" xmlns="http://www.w3.org/2000/svg">
<g clip-path="url(#clip0)">
<path d="M149.807 29.2187C149.133 27.3865 147.206 27.6758 145.761 28.0615C144.316 28.4472 143.449 30.3758 141.907 35.101C140.366 39.8261 138.536 42.1405 136.609 45.4191C134.586 48.6978 130.732 49.7585 130.058 49.9514C129.383 50.1443 92.2928 56.798 92.2928 56.798L92.1964 56.3159C92.1964 56.3159 91.9074 55.7373 91.8111 55.1587C91.7148 54.5801 90.5587 54.0015 89.8843 53.6158C89.2099 53.2301 87.3795 52.4586 87.1868 52.1693C86.9941 51.88 85.7417 52.1693 85.26 52.1693C84.7783 52.1693 84.2003 51.88 83.9113 51.3979C83.6223 51.0121 81.6955 51.1086 81.0211 50.8193C80.3467 50.53 78.9016 51.3979 78.9016 51.3979L78.6126 49.6621C78.6126 49.6621 76.3005 46.962 75.8188 45.4191C75.3371 43.8762 75.4334 41.8512 75.1444 39.7297C74.8554 37.6082 74.2774 37.8011 72.7359 35.3903C71.0982 32.9795 70.4238 31.2437 69.3641 29.1222C68.3043 27.0008 67.4373 24.3971 64.1618 22.0828C60.8862 19.7684 56.3583 18.7077 52.9864 18.1291C49.7109 17.6469 47.3988 17.1648 47.3988 17.1648C47.3988 17.1648 47.2061 15.9112 47.0134 15.0433C46.8207 14.1754 47.3988 12.7289 47.3988 12.0539C47.3988 11.3789 47.1097 9.54669 47.1097 9.54669C47.1097 9.54669 47.3024 8.29308 47.3988 7.71449C47.4951 7.13591 47.4951 5.97873 47.1097 5.40014C46.8207 4.82156 46.4354 4.62869 46.1463 3.56795C45.8573 2.41077 45.1829 2.02505 44.7976 0.67501C44.4122 -0.578597 43.5452 0.192854 42.6781 0.0964224C41.7147 -8.87364e-06 38.5355 0.482148 37.7648 0.482148C37.0905 0.482148 35.3564 0.0964224 34.8747 0.0964224C34.393 0.0964224 33.9113 0.385716 33.7186 0.385716C33.4296 0.385716 31.9845 2.60364 31.7918 3.37509C31.5028 4.14654 31.1174 4.53226 30.8284 4.82156C30.3467 5.40014 30.6357 6.94304 30.5394 7.4252C30.4431 7.81093 30.0577 8.58238 29.9614 9.73955C29.865 10.8967 29.865 13.5004 30.3467 14.1754C30.8284 14.8504 31.4065 16.779 31.5991 17.5505C31.7918 18.3219 31.8881 19.9613 31.8881 19.9613C31.8881 19.9613 27.8419 21.2149 24.2774 22.7578C20.7128 24.2042 16.2812 28.3508 14.7398 30.3758C13.1984 32.4009 10.8862 36.2582 8.76676 39.0547C6.6473 41.8512 3.85346 43.7798 3.27543 44.6477C2.60105 45.3227 4.23882 47.6371 4.04614 49.18C3.85346 50.7229 2.69739 52.7479 3.56445 53.9051C4.52784 55.0623 4.52784 60.0767 4.52784 60.0767C4.52784 60.0767 4.33516 60.5588 4.04614 60.9446C3.75712 61.3303 1.34865 63.4518 0.963289 64.609C0.577933 65.7661 3.56445 67.2126 3.46811 68.0805C3.37177 68.8519 1.15597 69.6234 0.385255 70.202C-0.481798 70.7806 0.288915 71.6484 0.770611 72.1306C1.15597 72.6128 2.60105 73.0949 2.98641 73.8664C3.37177 74.6378 5.78025 74.4449 5.97292 74.6378C6.1656 74.8307 6.93632 79.0736 7.41801 79.2665C7.89971 79.5558 9.44113 79.7487 9.53747 79.1701C9.73015 78.5915 10.8862 78.8808 11.4643 78.7843C12.0423 78.6879 12.7167 78.6879 13.4874 78.6879C14.3544 78.6879 14.7398 78.3986 15.0288 78.3022C15.3178 78.2058 15.7032 79.8451 15.7032 80.2308C15.7995 80.6165 16.6666 80.5201 17.2446 80.3273C17.8226 80.1344 17.8226 78.9772 18.5933 78.3986C19.2677 77.82 19.7494 76.9522 19.9421 75.8914C20.1348 74.8307 19.2677 73.2878 19.2677 73.2878L26.1078 72.1306C26.1078 72.1306 26.3968 73.4806 27.3602 75.0235C28.3236 76.5664 35.8381 82.3523 38.8246 84.5702C41.7147 86.8846 48.5548 92.6705 50.2889 93.249C52.023 93.9241 53.2754 91.7061 53.2754 91.7061C53.2754 91.7061 53.6608 91.7061 53.7571 91.9954C53.8535 92.2847 53.9498 93.1526 54.6242 94.4062C55.2022 95.6598 56.9363 98.0706 57.0327 99.0349C57.129 99.9992 58.1887 102.796 60.5009 105.689C62.813 108.582 66.6666 112.535 66.9556 113.307C67.2446 114.078 68.9787 116.778 69.5567 117.357C70.1348 118.032 70.5201 119.189 71.1945 119.961C71.8689 120.732 74.7591 122.757 76.1078 123.721C77.3602 124.686 79.0943 125.554 79.7687 125.65C80.3467 125.746 81.4065 125.746 81.4065 125.746C81.4065 125.746 84.682 127 86.0307 126.904C87.3795 126.807 87.2831 126.036 87.2831 125.65C87.3795 125.264 85.7417 122.95 85.7417 122.95C85.7417 122.95 86.1271 122.371 86.3198 121.311C86.6088 120.25 84.8747 118.707 84.2003 117.935C83.5259 117.164 81.5991 116.007 80.7321 115.043C79.7687 114.078 77.4566 111.957 77.2639 111.667C77.0712 111.378 76.8785 110.8 76.6858 110.221C76.4932 109.546 76.3005 108.967 76.1078 107.907C75.9151 106.942 74.0847 101.349 73.4103 99.5171C72.8323 97.6849 71.1945 94.5027 71.1945 94.5027C71.1945 94.5027 72.6396 95.1777 74.2774 95.7563C75.9151 96.3349 76.3005 97.1063 76.3005 97.1063C76.3005 97.1063 76.7822 98.3599 78.2273 100.771C79.576 103.278 83.8149 107.714 83.8149 107.714C83.8149 107.714 83.9113 108.485 84.0076 108.871C84.2003 109.257 85.9344 110.992 86.9941 111.282C88.1502 111.571 88.3429 112.15 88.4392 112.632C88.5356 113.114 90.4623 115.718 91.9074 116.778C93.3525 117.839 94.2196 118.707 96.2427 119.575C98.1695 120.346 103.853 122.564 105.202 122.95C106.551 123.336 108.767 122.661 108.767 122.661C108.767 122.661 112.139 122.853 112.909 122.661C113.776 122.468 113.584 121.696 113.295 121.407C113.006 121.118 111.175 119.575 111.175 119.575L111.368 118.803C111.368 118.803 111.272 116.971 110.79 116.296C110.308 115.621 109.056 114.464 108.189 113.982C107.322 113.5 103.083 112.535 102.119 112.15C101.156 111.86 100.193 111.282 99.6146 110.8C99.0365 110.317 97.3988 108.774 97.3024 108.485C97.2061 108.196 96.9171 107.039 96.4354 105.882C96.05 104.724 92.6781 97.8777 92.2928 97.0099C91.9074 96.142 89.9806 93.249 88.8246 91.7061C87.7648 90.1632 87.3795 89.9704 87.2831 89.8739C87.1868 89.6811 86.4161 86.981 86.0307 86.0167C85.6454 85.0524 84.393 82.8345 84.104 82.3523C83.8149 81.8702 83.1406 80.713 83.1406 80.713C83.1406 80.713 83.0442 79.7487 82.9479 79.2665C82.8516 78.7843 80.2504 75.5057 79.1907 73.5771C78.1309 71.7449 75.8188 69.2377 74.9517 68.0805C74.181 66.8269 73.2176 64.1268 73.2176 64.1268C73.2176 64.1268 73.892 64.7054 74.2774 64.8982C74.6627 65.0911 77.0712 65.0911 77.7456 65.3804C78.42 65.6697 79.1907 67.0197 79.865 67.4055C80.5394 67.7912 82.5625 67.309 84.8747 66.5376C87.1868 65.7661 89.499 64.6089 89.8843 64.2232C90.2697 63.8375 90.4623 62.4875 90.944 61.9089C91.4257 61.3303 91.5221 59.5945 91.5221 59.5945C91.5221 59.5945 136.416 51.4943 137.958 51.0121C139.499 50.53 141.04 48.1192 142.582 46.1906C144.123 44.262 147.88 38.4761 148.651 36.451C149.422 34.5224 150.482 30.9544 149.807 29.2187ZM25.4334 68.8519L18.497 70.1055C18.497 70.1055 18.208 68.9484 18.208 68.3698C18.208 67.7912 16.8592 65.0911 16.5702 64.2232C16.2812 63.3553 15.6068 62.1982 15.2215 61.3303C14.8361 60.4624 14.9325 59.4017 14.9325 59.4017C14.9325 59.4017 15.3178 58.6302 15.5105 57.8588C15.7032 57.0873 15.3178 55.8337 15.8959 54.6765C16.4739 53.4229 17.1483 53.3265 18.497 52.2658C19.7494 51.3014 20.6165 51.7836 20.6165 51.7836C20.6165 51.7836 20.8092 52.555 20.9055 54.6765C21.0018 56.798 22.9286 58.2445 23.4103 59.3052C23.7957 60.2696 24.7591 65.959 25.2407 66.9233C25.7224 67.7912 25.4334 68.8519 25.4334 68.8519ZM70.5201 58.7267C70.3275 59.3052 70.8092 60.366 70.8092 60.366L69.5567 60.6553C69.5567 60.6553 68.8824 59.691 68.208 59.3052C67.5336 58.9195 67.0519 57.3766 66.2812 56.123C65.5105 54.773 63.5837 53.0372 63.0057 52.3622C62.4277 51.5907 61.3679 51.205 61.4643 50.2407C61.5606 49.2764 63.4874 48.8907 63.4874 48.8907C63.4874 48.8907 64.7398 51.3979 65.5105 52.3622C66.2812 53.3265 67.341 54.773 68.1117 55.3516C68.9787 55.9301 71.4835 57.2802 71.6762 57.2802C71.6762 57.1838 70.6165 58.1481 70.5201 58.7267Z" fill="#133D6F"/>
</g>
<defs>
<clipPath id="clip0">
<rect width="150" height="127" fill="white"/>
</clipPath>
</defs>
</svg>
