<svg width="331" height="301" viewBox="0 0 331 301" fill="none" xmlns="http://www.w3.org/2000/svg">
<g opacity="0.1" clip-path="url(#clip0)">
<path d="M324.982 83.5503C324.982 83.5503 292.155 39.7685 277.018 19.5194C277.93 23.3503 278.295 27.546 277.748 31.9242C277.201 38.6739 275.377 45.606 272.824 52.5382C267.535 66.5848 258.599 80.9964 247.657 95.5903C242.186 102.887 235.985 110.002 229.42 117.299C227.779 119.123 226.137 120.947 224.314 122.589L223.037 123.866L221.578 125.143L218.843 127.697C215.195 131.163 211.73 134.812 207.901 138.278C192.582 152.507 175.439 166.188 156.655 178.776C137.871 191.363 117.445 203.038 95.3788 212.342C92.6433 213.619 89.9077 214.531 86.9898 215.625C84.0719 216.72 81.3364 217.815 78.4185 218.727C72.5827 220.551 66.9292 222.375 60.911 223.652C57.9931 224.382 54.8928 225.112 51.7926 225.476C48.6923 225.841 45.7744 226.571 42.6741 226.753C39.5738 226.936 36.4736 227.118 33.3733 227.301L23.7077 226.571L19.3309 225.841C17.6895 225.476 16.0482 225.112 14.4069 224.564C13.1303 224.017 11.8537 223.652 10.5771 223.105L58.3579 286.953C58.3579 286.953 58.5402 287.136 58.5402 287.318L58.7226 287.501C80.4245 315.776 161.214 298.811 235.074 243.354C235.256 243.172 235.438 242.989 235.621 242.989C309.48 187.532 346.136 112.191 324.982 83.5503Z" fill="#A1B2C7"/>
<path d="M262.064 6.38484C259.146 4.19575 256.046 3.1012 253.675 2.18908C251.305 1.45938 249.298 0.912111 247.84 0.729687C246.745 0.547263 246.016 0.364839 245.833 0.364839C245.651 0.364839 242.916 0.182414 237.627 -0.182434C234.891 -0.182434 231.609 0.182414 227.597 0.364839C225.59 0.729687 223.584 0.912111 221.214 1.27696C220.119 1.45938 218.843 1.64181 217.749 1.82423C216.472 2.00666 215.378 2.37151 214.101 2.73635C204.071 4.74302 192.035 8.75635 178.722 14.0467C165.409 19.5194 150.637 26.8164 135.5 36.12C120.181 45.4236 104.315 56.3691 88.4489 69.1388C84.6191 72.4224 80.4246 75.706 76.5949 79.1721C72.7651 82.6382 68.753 86.2867 64.9232 89.7527C61.0935 93.5836 57.2637 97.4145 53.2516 101.245C51.4279 103.252 49.6042 105.076 47.5982 107.083C45.7745 109.09 43.9508 111.096 42.1271 113.285C34.8323 121.677 27.7199 130.433 21.337 139.737C14.7717 149.223 9.11829 159.074 4.9238 169.655C2.91774 174.945 1.27641 180.418 0.546936 185.708C-0.36491 191.181 -0.000171233 196.653 1.45878 201.396C2.18826 203.768 3.28247 206.139 4.9238 207.964C5.65327 209.058 6.56512 209.788 7.2946 210.7C8.38881 211.43 9.11829 212.342 10.2125 212.889L11.8538 213.984L13.6775 214.896C14.7717 215.443 16.0483 215.808 17.3249 216.355C18.6015 216.72 19.8781 217.085 20.9723 217.45L25.3491 218.179L33.5558 218.727C36.4737 218.727 39.2092 218.362 42.1271 218.362C45.045 218.179 47.7805 217.632 50.6985 217.267C53.6164 216.902 56.3519 216.173 59.2698 215.625C64.9232 214.531 70.5767 212.707 76.0478 210.882C78.7833 209.97 81.5188 208.876 84.2544 207.964C86.9899 206.869 89.7254 205.957 92.2786 204.862C113.616 195.924 133.859 184.796 152.46 172.573C171.062 160.351 188.205 147.034 203.159 133.535C206.989 130.251 210.636 126.602 214.284 123.136L217.019 120.582L218.296 119.305L219.572 118.028C221.214 116.204 223.037 114.562 224.679 112.738C231.244 105.806 237.262 98.6915 242.733 91.7594C253.675 77.7127 262.247 63.8485 267.353 50.5315C269.906 43.9642 271.548 37.5794 272.095 31.5594C272.642 25.5394 271.912 20.2491 270.089 16.0533C267.9 11.6751 264.982 8.57393 262.064 6.38484Z" fill="#A1B2C7"/>
<path d="M318.781 102.34C318.599 98.8739 317.687 95.043 315.681 91.7594L315.864 91.577L289.055 55.8218L286.137 51.9909L284.131 56.5515C281.578 62.3891 279.207 68.4091 275.925 74.0642L273.554 78.26C272.824 79.7194 271.913 80.9964 271.001 82.4558L265.712 90.6648L259.876 98.6915L256.958 102.705L254.04 106.536L248.022 114.198L241.457 121.677L238.174 125.325L234.892 128.974L231.609 132.44L228.144 135.906L224.679 139.372L221.214 142.838C218.843 145.027 216.472 147.399 214.102 149.588C209.178 153.966 204.436 158.527 199.33 162.54L191.67 168.742C189.117 170.749 186.564 172.756 183.828 174.762C181.275 176.769 178.722 178.776 175.986 180.782L167.962 186.62L163.95 189.539L159.938 192.275L151.731 197.748C148.996 199.572 146.26 201.214 143.342 203.038L134.953 208.146C129.3 211.43 123.464 214.348 117.628 217.45C114.71 218.909 111.61 220.368 108.692 221.645C105.774 223.105 102.674 224.564 99.7561 225.841C93.7379 228.395 87.7198 230.949 81.5192 233.138L72.2184 236.239L62.7352 238.793C56.3523 240.435 49.787 241.53 43.2217 242.442C49.787 241.895 56.3523 241.347 62.9175 239.888L72.5831 237.699L82.0663 234.962C88.4492 232.956 94.6498 230.767 100.85 228.395C107.051 225.841 113.069 223.287 119.087 220.551C124.923 217.45 131.124 214.713 136.777 211.43L145.531 206.504C148.449 204.862 151.367 203.221 154.102 201.396L162.491 196.106L166.686 193.37L170.698 190.633C176.169 186.985 181.64 183.336 186.929 179.141C189.482 177.134 192.217 175.127 194.953 173.121L202.612 166.918C207.901 162.722 212.643 158.344 217.749 153.966C220.302 151.777 222.673 149.405 225.044 147.216L228.691 143.75L232.156 140.284L235.621 136.818L239.086 133.17L252.217 120.4C252.217 120.4 271.365 105.076 283.584 122.407C293.979 137.001 291.608 166.736 264.253 197.748C254.77 208.511 237.262 223.105 226.138 232.226C229.056 230.037 231.974 228.03 234.892 225.841C237.81 223.652 240.545 221.463 243.281 219.092C246.016 216.902 248.752 214.348 251.487 212.159C254.223 209.788 256.776 207.416 259.329 204.862C264.618 199.937 269.542 194.647 274.466 189.356C276.837 186.62 279.207 183.884 281.578 181.147C283.767 178.411 286.137 175.492 288.326 172.573C290.514 169.655 292.703 166.736 294.709 163.817C296.715 160.898 298.721 157.797 300.545 154.696C304.374 148.493 307.839 142.108 310.757 135.541C312.216 132.258 313.675 128.792 314.769 125.325C316.046 121.859 316.958 118.211 317.687 114.562C318.599 110.002 318.964 106.353 318.781 102.34Z" fill="white"/>
<path d="M262.794 32.2891C262.246 36.8497 260.97 41.9576 258.781 47.2479C254.222 59.2879 246.38 72.24 235.621 86.1042C231.973 90.8473 227.961 95.5903 223.584 100.333C157.384 118.941 18.0542 156.702 16.2305 157.25C17.6894 154.331 20.2426 149.953 21.5192 148.128C23.5252 147.399 25.5313 146.669 27.7197 145.939C97.9318 122.042 220.119 82.6382 221.578 79.1721C222.672 76.4358 84.8013 119.305 37.5677 132.44C35.1969 133.17 33.0084 133.717 31.1847 134.264C35.3792 128.792 39.7561 123.136 44.6801 117.664L50.1511 111.644L51.2453 110.367C53.9809 109.272 56.8988 108.178 60.1814 106.901C112.157 86.4691 219.39 47.7952 262.794 32.2891Z" fill="white"/>
</g>
<defs>
<clipPath id="clip0">
<rect width="331" height="301" fill="white"/>
</clipPath>
</defs>
</svg>
